<svg width="295" height="51" viewBox="0 0 295 51" fill="none" xmlns="http://www.w3.org/2000/svg">
<path d="M11.7177 41.5004L38.5118 41.5426V43.7032C38.5118 44.6617 38.3228 45.6108 37.9558 46.4963C37.5887 47.3817 37.0508 48.1862 36.3726 48.8636C35.6945 49.541 34.8894 50.0781 34.0036 50.4442C33.1177 50.8102 32.1684 50.9981 31.2099 50.9971L6.37868e-07 50.9631V6.58234C-0.000767123 4.83753 0.691571 3.16387 1.92473 1.92949C3.15788 0.695116 4.83085 0.00113086 6.57566 0.000171661H38.5286V2.91973C38.5286 4.6568 37.8385 6.32271 36.6103 7.551C35.382 8.7793 33.716 9.46934 31.979 9.46934H11.7177V41.5004Z" fill="black"/>
<path d="M117.397 23.2462C117.147 23.4915 116.948 23.7841 116.812 24.107C116.676 24.4298 116.605 24.7765 116.604 25.1269C116.603 25.4773 116.671 25.8245 116.805 26.1483C116.939 26.4721 117.136 26.766 117.384 27.0131L120.076 29.7046L129.711 39.5744C130.917 40.8092 131.591 42.4663 131.591 44.1919V44.1919C131.591 45.9877 130.878 47.71 129.608 48.9799C128.338 50.2497 126.616 50.9631 124.82 50.9631H58.5359V49.1668C58.536 47.1335 59.3437 45.1836 60.7815 43.7459C62.2192 42.3081 64.1692 41.5004 66.2025 41.5004H119.867L111.649 32.9371C109.609 30.82 108.491 27.9812 108.538 25.0416C108.586 22.102 109.795 19.3008 111.903 17.2506L119.867 9.46936H99.6189C97.8836 9.46931 96.2193 8.77991 94.9922 7.55281C93.7652 6.32571 93.0758 4.66143 93.0758 2.92608V0.00669289H125.048C126.784 0.00669289 128.448 0.696033 129.675 1.92306C130.902 3.15009 131.591 4.81431 131.591 6.54962V6.56138C131.591 7.4407 131.416 8.31116 131.075 9.1218C130.734 9.93244 130.235 10.6669 129.607 11.2823L117.397 23.2462Z" fill="black"/>
<path d="M24.4425 21.2511L36.7435 21.2283C36.7435 23.2951 35.9234 25.2775 34.4633 26.7403C33.0032 28.2031 31.0224 29.0268 28.9556 29.0307L16.6544 29.0535C16.6544 26.9866 17.4745 25.0042 18.9346 23.5414C20.3948 22.0786 22.3756 21.2549 24.4425 21.2511V21.2511Z" fill="black"/>
<path d="M79.093 38.0335L79.0387 15.2691L68.8553 32.3236C68.5478 32.8386 68.1119 33.2651 67.5902 33.5612C67.0686 33.8573 66.479 34.013 65.8791 34.013C65.2853 34.013 64.7015 33.8604 64.1836 33.57C63.6657 33.2796 63.2311 32.8611 62.9214 32.3545L52.7431 15.703V50.9631H49.9345C49.2187 50.9631 48.51 50.8221 47.8487 50.5482C47.1874 50.2743 46.5866 49.8728 46.0805 49.3667C45.5744 48.8606 45.1729 48.2597 44.899 47.5984C44.6252 46.9372 44.4842 46.2284 44.4842 45.5127V0.000905991H48.6864C49.6256 0.000919625 50.5488 0.243738 51.3665 0.705785C52.1842 1.16783 52.8685 1.83341 53.3531 2.63793L65.5922 22.9584C65.6343 23.0284 65.6939 23.0862 65.765 23.1263C65.8362 23.1663 65.9165 23.1873 65.9982 23.187C66.0798 23.1867 66.16 23.1653 66.2309 23.1247C66.3018 23.0842 66.3609 23.0259 66.4026 22.9557L78.4335 2.66977C78.9158 1.85654 79.6015 1.18283 80.4231 0.714893C81.2446 0.246954 82.1739 0.000894376 83.1194 0.000905991H87.2977L87.3445 32.5746C87.3455 33.291 87.2053 34.0006 86.9318 34.6628C86.6584 35.3249 86.2571 35.9267 85.7509 36.4337C85.2446 36.9406 84.6435 37.3428 83.9817 37.6172C83.3199 37.8916 82.6105 38.0328 81.8941 38.0328L79.093 38.0335Z" fill="#FF5E71"/>
<path d="M156.572 1.47669C156.617 1.47029 156.663 1.47444 156.706 1.48883C156.749 1.50322 156.788 1.52745 156.82 1.5596C156.853 1.59174 156.877 1.63093 156.891 1.67405C156.906 1.71717 156.91 1.76305 156.903 1.80806V3.23917C156.91 3.28419 156.906 3.33008 156.891 3.37322C156.877 3.41636 156.853 3.45557 156.82 3.48773C156.788 3.51988 156.749 3.54409 156.706 3.55847C156.663 3.57284 156.617 3.57698 156.572 3.57054H148.181C148.049 3.57054 147.984 3.64108 147.984 3.78181V5.7702H156.482C156.713 5.7702 156.828 5.88067 156.828 6.10158V7.29212C156.828 7.51279 156.712 7.62325 156.482 7.62349H147.984V9.7036C147.984 9.85391 148.049 9.92933 148.181 9.92933H156.572C156.617 9.92293 156.663 9.92708 156.706 9.94147C156.749 9.95586 156.788 9.98008 156.82 10.0122C156.853 10.0444 156.877 10.0836 156.891 10.1267C156.906 10.1698 156.91 10.2157 156.903 10.2607V11.692C156.91 11.737 156.906 11.7829 156.891 11.826C156.877 11.8691 156.853 11.9083 156.82 11.9405C156.788 11.9726 156.749 11.9968 156.706 12.0112C156.663 12.0256 156.617 12.0298 156.572 12.0234H146.569C146.343 12.0419 146.118 11.9835 145.929 11.8577C145.854 11.7811 145.796 11.6886 145.761 11.587C145.726 11.4854 145.714 11.3772 145.726 11.2704V2.22969C145.722 2.13025 145.738 2.03104 145.773 1.93787C145.808 1.8447 145.861 1.75943 145.929 1.68705C146.016 1.61025 146.117 1.55192 146.227 1.51563C146.338 1.47933 146.454 1.46584 146.569 1.47597L156.572 1.47669Z" fill="black"/>
<path d="M166.847 3.7516C167.76 3.7516 168.405 3.91223 168.782 4.23347C169.159 4.55471 169.347 5.04687 169.347 5.70997V6.28264C169.359 6.57609 169.292 6.86739 169.155 7.1268C169.017 7.3862 168.813 7.60441 168.563 7.75915C168.838 7.90661 169.065 8.12978 169.217 8.40225C169.37 8.67473 169.44 8.9851 169.422 9.29662V9.97419C169.425 10.26 169.385 10.5446 169.301 10.818C169.225 11.0624 169.091 11.2847 168.91 11.4661C168.708 11.659 168.462 11.8009 168.194 11.8799C167.84 11.9838 167.471 12.0322 167.102 12.0234H159.027C158.968 12.0319 158.907 12.0265 158.851 12.0075C158.794 11.9886 158.742 11.9567 158.7 11.9142C158.657 11.8718 158.625 11.8201 158.606 11.7632C158.587 11.7063 158.582 11.6457 158.59 11.5864V4.20344C158.581 4.14318 158.585 4.08148 158.603 4.02324C158.622 3.965 158.653 3.91183 158.696 3.86793C158.738 3.82404 158.79 3.79064 158.848 3.77038C158.905 3.75013 158.967 3.74357 159.027 3.75124L166.847 3.7516ZM160.744 7.15646H166.454C166.682 7.1786 166.91 7.11698 167.095 6.98318C167.16 6.91732 167.211 6.8382 167.243 6.75113C167.276 6.66405 167.289 6.57104 167.283 6.47834V6.14698C167.291 6.04897 167.278 5.95038 167.244 5.85803C167.21 5.76568 167.157 5.68177 167.087 5.61212C166.893 5.47815 166.659 5.41679 166.424 5.43884H160.941C160.81 5.43884 160.744 5.5092 160.744 5.64992V7.15646ZM160.744 8.49749V10.1391C160.741 10.1658 160.743 10.1931 160.752 10.2186C160.76 10.2442 160.774 10.2675 160.793 10.2866C160.813 10.3056 160.836 10.32 160.861 10.3285C160.887 10.337 160.914 10.3394 160.941 10.3356H166.454C166.686 10.3578 166.917 10.2993 167.11 10.1699C167.176 10.1057 167.227 10.0279 167.259 9.94187C167.292 9.85587 167.305 9.7638 167.298 9.67212V9.23585C167.305 9.13621 167.292 9.03616 167.26 8.94164C167.228 8.84712 167.177 8.76005 167.11 8.6856C166.984 8.56032 166.761 8.49761 166.44 8.49749H160.744Z" fill="black"/>
<path d="M178.854 3.75161C179.426 3.74078 179.998 3.79902 180.556 3.92507C180.964 4.01363 181.344 4.19984 181.664 4.46771C181.946 4.72341 182.151 5.05195 182.259 5.41714C182.388 5.86979 182.449 6.33923 182.439 6.8099V8.97936C182.449 9.45004 182.388 9.91949 182.259 10.3721C182.152 10.7374 181.946 11.0659 181.664 11.3216C181.344 11.5888 180.964 11.7726 180.556 11.8564C179.997 11.977 179.426 12.0326 178.854 12.0221H173.204V15.02C173.21 15.065 173.206 15.1109 173.192 15.154C173.177 15.1971 173.153 15.2363 173.121 15.2684C173.089 15.3006 173.05 15.3248 173.007 15.3392C172.963 15.3536 172.918 15.3578 172.873 15.3514H171.397C171.165 15.3514 171.05 15.2407 171.05 15.02V6.80972C171.04 6.33905 171.101 5.86961 171.231 5.41696C171.338 5.05171 171.544 4.72318 171.826 4.46753C172.144 4.20045 172.521 4.01426 172.926 3.9249C173.487 3.79806 174.061 3.73981 174.636 3.75142L178.854 3.75161ZM173.204 10.2144H178.643C178.916 10.2202 179.189 10.1949 179.457 10.139C179.648 10.0996 179.823 10.0053 179.961 9.86766C180.094 9.72361 180.185 9.5466 180.225 9.35523C180.28 9.09274 180.305 8.82484 180.3 8.55665V7.2158C180.305 6.95021 180.279 6.68497 180.225 6.42499C180.187 6.23286 180.096 6.0553 179.961 5.91256C179.82 5.77886 179.646 5.6852 179.457 5.64124C179.19 5.58023 178.916 5.55252 178.643 5.55876H174.846C174.578 5.55302 174.309 5.58072 174.048 5.64124C173.858 5.68508 173.684 5.77875 173.543 5.91256C173.409 6.05511 173.317 6.23275 173.279 6.42499C173.225 6.68493 173.199 6.9502 173.204 7.2158V10.2144Z" fill="black"/>
<path d="M190.906 3.75161C191.478 3.74077 192.05 3.79901 192.608 3.92507C193.016 4.01362 193.396 4.19984 193.715 4.4677C193.997 4.72334 194.203 5.0519 194.31 5.41714C194.44 5.86979 194.501 6.33922 194.491 6.80989V10.8174C194.495 11.0171 194.477 11.2166 194.438 11.4124C194.412 11.5495 194.35 11.6771 194.257 11.7815C194.165 11.876 194.047 11.9416 193.918 11.9704C193.74 12.0092 193.558 12.0269 193.376 12.0228H186.204C185.831 12.0311 185.458 11.988 185.097 11.8948C184.831 11.8261 184.586 11.6942 184.382 11.5104C184.194 11.3294 184.061 11.0999 183.997 10.8475C183.916 10.5326 183.878 10.2084 183.884 9.88338V9.15987C183.88 8.87706 183.918 8.59525 183.997 8.32367C184.068 8.08509 184.201 7.86948 184.382 7.69873C184.586 7.51504 184.831 7.38315 185.097 7.31419C185.458 7.22109 185.831 7.17806 186.204 7.1863H192.336V6.9007C192.34 6.69214 192.315 6.48404 192.261 6.28264C192.217 6.12258 192.128 5.97856 192.005 5.86806C191.86 5.75133 191.69 5.67122 191.508 5.63455C191.24 5.57907 190.967 5.55395 190.694 5.55966H184.397C184.36 5.56484 184.322 5.5614 184.287 5.54959C184.252 5.53779 184.22 5.51795 184.193 5.49165C184.167 5.46534 184.147 5.43329 184.135 5.398C184.123 5.36272 184.12 5.32518 184.125 5.28834V4.02219C184.12 3.98535 184.123 3.94779 184.135 3.91249C184.147 3.87719 184.167 3.84512 184.193 3.81881C184.219 3.79249 184.252 3.77266 184.287 3.76087C184.322 3.74908 184.36 3.74566 184.397 3.75088L190.906 3.75161ZM191.9 10.3656C191.962 10.3721 192.024 10.3654 192.082 10.3459C192.141 10.3263 192.194 10.2945 192.24 10.2524C192.317 10.1343 192.351 9.99351 192.337 9.85318V8.52752H186.823C186.589 8.50333 186.354 8.57073 186.168 8.71563C186.102 8.79011 186.051 8.87718 186.018 8.97169C185.986 9.0662 185.973 9.16623 185.98 9.26586V9.58132C185.971 9.68798 185.983 9.79543 186.015 9.89751C186.047 9.9996 186.099 10.0943 186.168 10.1762C186.354 10.3217 186.589 10.3894 186.823 10.3651L191.9 10.3656Z" fill="black"/>
<path d="M202.883 3.7516C203.797 3.7516 204.447 3.91222 204.834 4.23347C205.221 4.55471 205.414 5.04687 205.414 5.70997V6.26726C205.425 6.56298 205.36 6.85649 205.225 7.12009C205.091 7.3837 204.891 7.60873 204.646 7.77398C204.911 7.92628 205.129 8.14915 205.275 8.41782C205.422 8.68648 205.49 8.99043 205.474 9.29589V9.98884C205.478 10.2747 205.437 10.5594 205.354 10.8326C205.278 11.0752 205.144 11.2951 204.962 11.4724C204.756 11.6627 204.508 11.8021 204.238 11.8792C203.876 11.9833 203.5 12.0317 203.123 12.0226H195.952C195.909 12.0288 195.865 12.0248 195.824 12.011C195.783 11.9973 195.746 11.9741 195.715 11.9433C195.684 11.9126 195.661 11.8752 195.647 11.8339C195.634 11.7927 195.63 11.7489 195.636 11.7059V10.6206C195.63 10.5777 195.634 10.5338 195.647 10.4926C195.661 10.4514 195.684 10.414 195.715 10.3832C195.746 10.3525 195.783 10.3293 195.824 10.3155C195.865 10.3018 195.909 10.2978 195.952 10.3039H202.476C202.717 10.3262 202.959 10.2652 203.161 10.1312C203.231 10.0677 203.285 9.9894 203.32 9.902C203.356 9.8146 203.371 9.72039 203.365 9.62636V9.31C203.372 9.21019 203.358 9.10991 203.323 9.01618C203.288 8.92246 203.232 8.83754 203.161 8.76736C202.956 8.62636 202.708 8.56229 202.461 8.58649H196.057C195.846 8.58649 195.741 8.47597 195.741 8.25493V7.45781C195.741 7.25703 195.846 7.15658 196.057 7.15646H202.461C202.702 7.17895 202.944 7.11777 203.146 6.98318C203.214 6.92227 203.268 6.84659 203.304 6.76181C203.339 6.67704 203.354 6.58538 203.349 6.49372V6.16271C203.357 6.06848 203.343 5.97364 203.308 5.8859C203.273 5.79817 203.217 5.72004 203.146 5.65788C202.94 5.53412 202.7 5.47883 202.461 5.49997H195.952C195.909 5.50609 195.865 5.50213 195.824 5.48837C195.783 5.4746 195.746 5.45143 195.715 5.42069C195.684 5.38995 195.661 5.35249 195.647 5.31127C195.634 5.27006 195.63 5.22623 195.636 5.18325V4.06814C195.63 4.0252 195.634 3.98142 195.648 3.94026C195.661 3.89909 195.684 3.86169 195.715 3.831C195.746 3.80032 195.783 3.7772 195.824 3.76348C195.865 3.74976 195.909 3.74581 195.952 3.75196L202.883 3.7516Z" fill="black"/>
<path d="M208.818 3.7516C209.04 3.7516 209.15 3.86754 209.15 4.09852V9.8832C209.15 9.98359 209.19 10.0342 209.271 10.0342H209.406C209.446 10.0369 209.485 10.0284 209.52 10.0097C209.554 9.99102 209.583 9.96289 209.602 9.9286L214.121 4.64025C214.236 4.49738 214.359 4.36155 214.491 4.23346C214.601 4.12697 214.725 4.03572 214.86 3.96215C215.004 3.88711 215.159 3.83361 215.32 3.80334C215.536 3.76484 215.755 3.74726 215.975 3.75087H216.819C217.281 3.75087 217.622 3.86139 217.843 4.08243C218.064 4.30346 218.174 4.72015 218.174 5.33248V11.6905C218.174 11.9112 218.059 12.0217 217.828 12.0219H216.352C216.307 12.0284 216.261 12.0242 216.218 12.0098C216.174 11.9955 216.135 11.9713 216.103 11.9391C216.071 11.9069 216.047 11.8677 216.032 11.8246C216.018 11.7815 216.014 11.7356 216.02 11.6905V5.89139C216.02 5.791 215.98 5.74036 215.899 5.74036H215.764C215.725 5.74224 215.688 5.75271 215.654 5.77099C215.62 5.78927 215.591 5.81489 215.568 5.84599L211.033 11.1343C210.892 11.295 210.767 11.4329 210.656 11.5482C210.551 11.6596 210.429 11.7537 210.295 11.8271C210.153 11.901 210 11.9518 209.843 11.9776C209.628 12.011 209.411 12.0262 209.194 12.023H208.38C207.919 12.023 207.574 11.9151 207.348 11.6992C207.122 11.4834 207.009 11.069 207.01 10.4562V4.09852C207.003 4.05146 207.007 4.00347 207.022 3.95835C207.037 3.91323 207.063 3.87221 207.096 3.83855C207.13 3.8049 207.171 3.77951 207.216 3.76442C207.261 3.74933 207.309 3.74495 207.356 3.7516H208.818Z" fill="black"/>
<path d="M221.865 3.75161C222.086 3.75161 222.196 3.86754 222.196 4.09853V9.88321C222.196 9.9836 222.236 10.0342 222.317 10.0342H222.453C222.492 10.0369 222.531 10.0284 222.566 10.0097C222.6 9.991 222.629 9.96288 222.648 9.9286L227.168 4.64026C227.282 4.49739 227.406 4.36155 227.537 4.23347C227.647 4.12697 227.771 4.03573 227.906 3.96215C228.051 3.88711 228.206 3.83361 228.366 3.80334C228.582 3.76483 228.802 3.74726 229.021 3.75088H229.865C230.327 3.75088 230.668 3.8614 230.889 4.08243C231.11 4.30346 231.221 4.72015 231.221 5.33248V11.6905C231.221 11.9112 231.105 12.0217 230.874 12.0219H229.398C229.353 12.0284 229.307 12.0242 229.264 12.0098C229.221 11.9955 229.181 11.9713 229.149 11.9391C229.117 11.9069 229.093 11.8677 229.079 11.8246C229.064 11.7815 229.06 11.7356 229.066 11.6905V5.89139C229.066 5.791 229.026 5.74037 228.946 5.74037H228.81C228.772 5.74225 228.734 5.75271 228.7 5.77099C228.666 5.78927 228.637 5.81489 228.614 5.846L224.08 11.1343C223.939 11.295 223.813 11.4329 223.703 11.5482C223.598 11.6596 223.475 11.7538 223.341 11.8271C223.199 11.901 223.047 11.9518 222.889 11.9776C222.674 12.011 222.458 12.0262 222.241 12.023H221.427C220.965 12.023 220.621 11.9151 220.395 11.6992C220.169 11.4834 220.056 11.069 220.056 10.4562V4.09853C220.05 4.05146 220.054 4.00347 220.069 3.95835C220.084 3.91323 220.109 3.87221 220.143 3.83856C220.176 3.8049 220.217 3.77952 220.262 3.76442C220.308 3.74933 220.356 3.74495 220.403 3.75161H221.865ZM222 0.346928C221.999 0.260498 222.025 0.175915 222.076 0.105628C222.099 0.0717062 222.131 0.0442629 222.168 0.0258309C222.205 0.00739897 222.246 -0.00141686 222.287 0.000185123C222.427 0.0127699 222.559 0.0709667 222.663 0.165862C222.744 0.236284 222.872 0.336735 223.048 0.467208C223.25 0.614936 223.464 0.746081 223.688 0.859359C223.963 0.999272 224.25 1.11259 224.547 1.19778C225.247 1.38879 225.986 1.38879 226.686 1.19778C226.984 1.11153 227.274 0.99826 227.552 0.859359C227.777 0.748134 227.991 0.616884 228.193 0.467208C228.363 0.336614 228.494 0.236224 228.584 0.165862C228.643 0.11356 228.709 0.0703852 228.78 0.0377983C228.832 0.0144666 228.889 0.00169042 228.946 0.000185123C228.987 -0.0012199 229.028 0.00769033 229.065 0.0261069C229.101 0.0445235 229.133 0.0718528 229.157 0.105628C229.207 0.176029 229.233 0.260535 229.232 0.346928V1.12995C229.233 1.23464 229.218 1.33884 229.187 1.43889C229.136 1.562 229.053 1.66889 228.946 1.74801C228.772 1.87996 228.588 1.99825 228.396 2.10181C228.145 2.2386 227.883 2.35457 227.612 2.44855C227.303 2.55747 226.986 2.64297 226.664 2.70431C226.318 2.77078 225.968 2.80361 225.616 2.80235C225.262 2.80342 224.909 2.77059 224.562 2.70431C224.242 2.64506 223.927 2.55951 223.62 2.44855C223.353 2.35197 223.094 2.23608 222.844 2.10181C222.652 2.00203 222.47 1.88353 222.301 1.74801C222.188 1.67192 222.099 1.56454 222.046 1.43889C222.015 1.33884 221.999 1.23464 222 1.12995L222 0.346928Z" fill="black"/>
<path d="M242.384 3.75161C242.421 3.74627 242.458 3.74961 242.494 3.76135C242.529 3.7731 242.561 3.79294 242.588 3.81928C242.614 3.84562 242.634 3.87775 242.645 3.9131C242.657 3.94845 242.661 3.98606 242.655 4.02292V5.28907C242.66 5.32593 242.657 5.3635 242.645 5.39881C242.634 5.43413 242.614 5.46622 242.587 5.49254C242.561 5.51886 242.529 5.5387 242.494 5.55048C242.458 5.56225 242.421 5.56565 242.384 5.56039H236.539C236.265 5.55415 235.992 5.58185 235.725 5.64287C235.537 5.68543 235.365 5.77937 235.228 5.91419C235.098 6.05858 235.009 6.23574 234.972 6.42662C234.917 6.68653 234.892 6.95182 234.896 7.21742V8.55827C234.891 8.82648 234.916 9.09442 234.972 9.35685C235.01 9.5451 235.098 9.71952 235.228 9.8615C235.365 9.99659 235.537 10.0906 235.725 10.1328C235.992 10.1938 236.265 10.2215 236.539 10.2153H242.384C242.421 10.21 242.458 10.2133 242.494 10.225C242.529 10.2368 242.561 10.2566 242.588 10.283C242.614 10.3093 242.634 10.3414 242.645 10.3768C242.657 10.4121 242.661 10.4498 242.655 10.4866V11.7528C242.661 11.7896 242.657 11.8272 242.645 11.8626C242.634 11.8979 242.614 11.9301 242.588 11.9564C242.561 11.9828 242.529 12.0026 242.494 12.0143C242.458 12.0261 242.421 12.0294 242.384 12.0241H236.328C235.753 12.0353 235.179 11.9797 234.618 11.8584C234.213 11.7734 233.835 11.5897 233.518 11.3235C233.236 11.0681 233.03 10.7395 232.923 10.3741C232.794 9.92147 232.733 9.45202 232.742 8.98134V6.80972C232.733 6.33904 232.794 5.8696 232.923 5.41695C233.03 5.05163 233.236 4.72303 233.518 4.46753C233.835 4.20069 234.213 4.01453 234.618 3.92489C235.179 3.79802 235.753 3.73977 236.328 3.75142L242.384 3.75161Z" fill="black"/>
<path d="M245.894 3.75161C246.116 3.75161 246.226 3.86755 246.226 4.09853V7.02098H248.26C248.471 7.02098 248.651 7.01351 248.802 6.99856C248.936 6.98747 249.068 6.95701 249.194 6.90812C249.303 6.86436 249.403 6.80062 249.488 6.72019C249.591 6.61866 249.684 6.50765 249.766 6.38864L251.439 4.00809C251.493 3.93325 251.56 3.86725 251.634 3.81238C251.717 3.76709 251.811 3.7462 251.906 3.75215H253.593C253.639 3.74718 253.684 3.75696 253.724 3.78003C253.763 3.8031 253.794 3.83823 253.812 3.88021C253.828 3.92838 253.83 3.98009 253.818 4.02942C253.806 4.07875 253.78 4.1237 253.744 4.15913L251.8 6.8251C251.538 7.18581 251.229 7.51001 250.881 7.78918C251.088 7.90662 251.28 8.04814 251.454 8.2108C251.63 8.37754 251.791 8.55909 251.936 8.75344L254.09 11.6457C254.119 11.6797 254.138 11.7209 254.144 11.7649C254.151 11.8088 254.145 11.8536 254.128 11.8946C254.11 11.9366 254.079 11.9717 254.04 11.9948C254.001 12.0178 253.955 12.0276 253.909 12.0226H252.207C252.112 12.0291 252.017 12.0135 251.929 11.9772C251.86 11.9348 251.801 11.8784 251.755 11.8116L249.917 9.28052C249.774 9.06194 249.573 8.88723 249.337 8.77569C249.039 8.67646 248.725 8.6331 248.411 8.64781H246.226V11.6913C246.232 11.7363 246.228 11.7822 246.214 11.8253C246.199 11.8685 246.175 11.9077 246.143 11.9398C246.111 11.972 246.072 11.9962 246.028 12.0106C245.985 12.025 245.939 12.0291 245.894 12.0226H244.418C244.187 12.0226 244.071 11.9122 244.072 11.6913V4.09853C244.065 4.05145 244.07 4.00351 244.085 3.95844C244.1 3.91338 244.125 3.87243 244.159 3.83881C244.192 3.8052 244.233 3.77984 244.278 3.7647C244.323 3.74957 244.371 3.74509 244.418 3.75161H245.894Z" fill="black"/>
<path d="M257.133 3.75161C257.354 3.75161 257.465 3.86724 257.464 4.09853V9.88321C257.464 9.9836 257.505 10.0342 257.585 10.0342H257.721C257.76 10.0369 257.799 10.0284 257.834 10.0098C257.869 9.99105 257.897 9.96292 257.917 9.92861L262.436 4.64026C262.551 4.4973 262.674 4.36146 262.805 4.23347C262.916 4.12698 263.04 4.03573 263.174 3.96215C263.319 3.88709 263.474 3.83359 263.634 3.80334C263.85 3.76484 264.07 3.74727 264.289 3.75088H265.133C265.595 3.75088 265.936 3.8614 266.157 4.08243C266.378 4.30347 266.489 4.72015 266.489 5.33249V11.6906C266.489 11.9112 266.373 12.0217 266.142 12.0219H264.666C264.621 12.0284 264.575 12.0242 264.532 12.0098C264.489 11.9955 264.45 11.9713 264.418 11.9391C264.386 11.9069 264.361 11.8677 264.347 11.8246C264.333 11.7815 264.328 11.7356 264.335 11.6906V5.8914C264.335 5.79101 264.295 5.74037 264.214 5.74037H264.078C264.04 5.74225 264.002 5.75271 263.968 5.77099C263.935 5.78927 263.905 5.8149 263.883 5.846L259.348 11.1343C259.207 11.295 259.082 11.4329 258.971 11.5482C258.866 11.6597 258.744 11.7538 258.609 11.8271C258.467 11.9011 258.315 11.9519 258.157 11.9776C257.943 12.011 257.726 12.0262 257.509 12.023H256.695C256.233 12.023 255.889 11.9151 255.663 11.6992C255.437 11.4834 255.324 11.069 255.325 10.4562V4.09853C255.318 4.05147 255.322 4.00348 255.337 3.95835C255.352 3.91323 255.377 3.87222 255.411 3.83856C255.444 3.8049 255.485 3.77951 255.531 3.76442C255.576 3.74932 255.624 3.74494 255.671 3.75161H257.133Z" fill="black"/>
<path d="M270.18 3.75161C270.401 3.75161 270.512 3.86724 270.511 4.09853V9.88321C270.511 9.9836 270.552 10.0342 270.632 10.0342H270.768C270.807 10.0369 270.846 10.0284 270.881 10.0097C270.915 9.99105 270.944 9.96291 270.963 9.92861L275.483 4.64026C275.598 4.4973 275.721 4.36146 275.852 4.23347C275.962 4.12698 276.086 4.03573 276.221 3.96215C276.366 3.88709 276.521 3.83359 276.681 3.80334C276.897 3.76484 277.117 3.74727 277.336 3.75088H278.18C278.642 3.75088 278.983 3.8614 279.204 4.08243C279.425 4.30346 279.536 4.72015 279.536 5.33248V11.6905C279.536 11.9112 279.42 12.0217 279.189 12.0219H277.713C277.668 12.0284 277.622 12.0242 277.579 12.0098C277.536 11.9955 277.497 11.9713 277.465 11.9391C277.432 11.9069 277.408 11.8677 277.394 11.8246C277.379 11.7815 277.375 11.7356 277.382 11.6905V5.89139C277.382 5.79101 277.341 5.74037 277.261 5.74037H277.125C277.087 5.74225 277.049 5.75271 277.015 5.77099C276.981 5.78927 276.952 5.8149 276.929 5.846L272.395 11.1343C272.254 11.295 272.128 11.4329 272.018 11.5482C271.913 11.6597 271.791 11.7538 271.656 11.8271C271.514 11.9011 271.362 11.9519 271.204 11.9776C270.989 12.011 270.773 12.0262 270.556 12.023H269.742C269.28 12.023 268.936 11.9151 268.711 11.6992C268.485 11.4834 268.373 11.069 268.372 10.4562V4.09853C268.366 4.05147 268.37 4.00348 268.385 3.95835C268.4 3.91323 268.425 3.87222 268.459 3.83856C268.492 3.8049 268.533 3.77951 268.578 3.76441C268.623 3.74932 268.671 3.74494 268.718 3.75161H270.18ZM270.315 0.346929C270.314 0.260468 270.341 0.175859 270.391 0.105629C270.414 0.0717336 270.446 0.0443066 270.483 0.0258759C270.52 0.0074453 270.561 -0.0013852 270.602 0.00018597C270.742 0.0127584 270.874 0.0709542 270.978 0.165863C271.059 0.236285 271.187 0.336735 271.363 0.467209C271.565 0.614897 271.779 0.74604 272.003 0.859359C272.278 0.999241 272.565 1.11256 272.862 1.19778C273.562 1.38878 274.301 1.38878 275.001 1.19778C275.299 1.11156 275.589 0.998291 275.867 0.859359C276.092 0.748177 276.306 0.616925 276.508 0.467209C276.678 0.336615 276.809 0.236224 276.899 0.165863C276.958 0.113568 277.024 0.0703923 277.095 0.0377991C277.147 0.014499 277.204 0.00172435 277.261 0.00018597C277.302 -0.00126858 277.343 0.00760972 277.38 0.0260305C277.417 0.0444513 277.448 0.0718178 277.472 0.105629C277.522 0.176014 277.548 0.260518 277.547 0.346929V1.12995C277.548 1.23466 277.533 1.33887 277.502 1.43889C277.451 1.56203 277.368 1.66895 277.261 1.74801C277.087 1.87992 276.903 1.99821 276.711 2.10181C276.46 2.23863 276.198 2.3546 275.927 2.44855C275.618 2.55745 275.301 2.64295 274.979 2.70431C274.634 2.77077 274.283 2.8036 273.931 2.80235C273.578 2.80342 273.225 2.7706 272.877 2.70431C272.557 2.64506 272.242 2.55952 271.935 2.44855C271.669 2.35193 271.409 2.23605 271.159 2.10181C270.967 2.00206 270.785 1.88355 270.617 1.74801C270.503 1.6719 270.414 1.56451 270.361 1.43889C270.33 1.33887 270.315 1.23466 270.315 1.12995V0.346929Z" fill="black"/>
<path d="M148.497 21.8302C148.684 21.8267 148.871 21.8443 149.054 21.8827C149.198 21.9151 149.334 21.9767 149.453 22.0636C149.579 22.1592 149.686 22.2766 149.77 22.4103C149.865 22.555 149.973 22.7433 150.094 22.9752L152.594 27.9313C152.613 27.9716 152.643 28.0058 152.68 28.0298C152.718 28.0539 152.761 28.0667 152.805 28.0669H153.047C153.092 28.0694 153.136 28.0577 153.174 28.0333C153.212 28.0089 153.241 27.9732 153.257 27.9313L155.758 22.9752C155.879 22.7442 155.986 22.5556 156.082 22.4103C156.166 22.2768 156.273 22.1594 156.398 22.0636C156.518 21.9769 156.654 21.9154 156.798 21.8827C156.981 21.8443 157.168 21.8268 157.355 21.8302H158.862C159.081 21.8245 159.299 21.8524 159.51 21.9127C159.669 21.9607 159.811 22.0552 159.917 22.184C160.025 22.3282 160.097 22.4962 160.128 22.674C160.171 22.9174 160.191 23.1644 160.188 23.4117V29.7697C160.194 29.8147 160.19 29.8606 160.176 29.9037C160.161 29.9469 160.137 29.9861 160.105 30.0182C160.073 30.0504 160.034 30.0746 159.991 30.0889C159.947 30.1033 159.902 30.1075 159.856 30.1011H158.364C158.319 30.1075 158.274 30.1033 158.23 30.0889C158.187 30.0746 158.148 30.0504 158.116 30.0182C158.084 29.9861 158.06 29.9469 158.045 29.9037C158.031 29.8606 158.027 29.8147 158.033 29.7697V23.7738C158.033 23.6734 157.993 23.6229 157.913 23.6229H157.777C157.733 23.6198 157.689 23.6275 157.649 23.6452C157.617 23.67 157.593 23.7046 157.581 23.7438L155.111 28.6246C154.97 28.8957 154.842 29.1242 154.726 29.3103C154.624 29.4808 154.497 29.6355 154.35 29.7697C154.216 29.8893 154.056 29.9769 153.883 30.0257C153.679 30.0796 153.468 30.105 153.257 30.1011H152.594C152.384 30.1049 152.173 30.0795 151.969 30.0257C151.796 29.977 151.636 29.8894 151.502 29.7697C151.354 29.6345 151.225 29.48 151.118 29.3103C150.979 29.0898 150.853 28.8608 150.742 28.6246L148.271 23.7438C148.259 23.7048 148.235 23.6704 148.203 23.6452C148.163 23.6275 148.119 23.6198 148.075 23.6229H147.939C147.859 23.6229 147.818 23.6734 147.818 23.7738V29.7697C147.825 29.8147 147.821 29.8606 147.806 29.9038C147.792 29.9469 147.768 29.9861 147.736 30.0183C147.704 30.0504 147.664 30.0747 147.621 30.089C147.578 30.1034 147.532 30.1075 147.487 30.1011H146.011C145.78 30.1011 145.664 29.9906 145.664 29.7697V23.4117C145.661 23.1644 145.681 22.9174 145.725 22.674C145.755 22.4962 145.827 22.3282 145.936 22.184C146.041 22.0552 146.183 21.9607 146.343 21.9127C146.558 21.8517 146.782 21.8239 147.005 21.8302H148.497Z" fill="#FF5E71"/>
<path d="M169.74 21.8302C170.168 21.8215 170.595 21.8644 171.013 21.9581C171.312 22.0239 171.588 22.1696 171.811 22.3798C172.016 22.5936 172.159 22.8592 172.225 23.1481C172.312 23.526 172.353 23.9132 172.346 24.3011V25.7322C172.346 26.0539 172.276 26.2774 172.135 26.4027C171.949 26.5423 171.719 26.6092 171.487 26.5908H163.879V26.9526C163.879 27.4246 163.992 27.7663 164.218 27.9774C164.444 28.1885 164.883 28.2939 165.536 28.2936H171.818C171.855 28.2882 171.893 28.2916 171.928 28.3033C171.963 28.3151 171.996 28.3349 172.022 28.3612C172.048 28.3876 172.068 28.4197 172.08 28.4551C172.092 28.4904 172.095 28.528 172.09 28.5649V29.8311C172.095 29.8679 172.092 29.9055 172.08 29.9409C172.068 29.9762 172.048 30.0084 172.022 30.0347C171.996 30.061 171.963 30.0809 171.928 30.0926C171.893 30.1044 171.855 30.1077 171.818 30.1024H165.325C164.75 30.1136 164.176 30.058 163.614 29.9367C163.209 29.8518 162.832 29.6681 162.515 29.4018C162.232 29.1464 162.027 28.8178 161.92 28.4524C161.79 27.9998 161.729 27.5303 161.739 27.0596V24.8884C161.73 24.4177 161.79 23.9482 161.92 23.4956C162.027 23.1303 162.233 22.8017 162.515 22.5462C162.832 22.2793 163.21 22.0932 163.614 22.0035C164.175 21.8767 164.75 21.8185 165.325 21.8302H169.74ZM163.879 25.2489H169.981C170.015 25.2539 170.051 25.2507 170.084 25.2396C170.118 25.2285 170.148 25.2098 170.173 25.185C170.198 25.1602 170.216 25.1299 170.228 25.0965C170.239 25.0632 170.242 25.0277 170.237 24.9929V24.3598C170.261 24.1218 170.19 23.884 170.041 23.6971C169.91 23.5665 169.67 23.5014 169.318 23.5014H165.537C164.884 23.5014 164.445 23.6044 164.219 23.8103C163.993 24.0163 163.88 24.3602 163.88 24.8422L163.879 25.2489Z" fill="#FF5E71"/>
<path d="M175.75 21.8302C175.838 21.8257 175.925 21.8412 176.006 21.8756C176.073 21.9107 176.134 21.9563 176.187 22.0106L179.155 24.7227L182.198 22.0106C182.243 21.9544 182.3 21.9084 182.364 21.8756C182.445 21.8411 182.532 21.8256 182.62 21.8302H184.322C184.463 21.8302 184.546 21.878 184.571 21.9735C184.583 22.0208 184.581 22.0705 184.567 22.117C184.552 22.1636 184.525 22.2052 184.488 22.237L180.465 25.9279L184.607 29.7095C184.64 29.7426 184.664 29.7833 184.677 29.828C184.69 29.8726 184.692 29.9198 184.683 29.9654C184.662 30.0559 184.582 30.1011 184.442 30.1011H182.529C182.439 30.1048 182.349 30.0893 182.265 30.0557C182.2 30.0266 182.142 29.9858 182.092 29.9354L178.897 27.013L175.613 29.9354C175.565 29.9843 175.509 30.0249 175.448 30.0557C175.367 30.0898 175.279 30.1053 175.192 30.1011H173.489C173.349 30.1011 173.265 30.0557 173.241 29.9654C173.229 29.9193 173.231 29.8708 173.245 29.8255C173.26 29.7803 173.287 29.7401 173.324 29.7095L177.572 25.8076L173.685 22.237C173.648 22.205 173.62 22.1637 173.605 22.1174C173.589 22.0712 173.585 22.0215 173.595 21.9735C173.615 21.8782 173.695 21.8302 173.836 21.8302H175.75Z" fill="#FF5E71"/>
<path d="M192.533 21.8302C193.106 21.8194 193.677 21.8775 194.236 22.0035C194.643 22.0921 195.023 22.2783 195.343 22.5462C195.625 22.8019 195.831 23.1304 195.938 23.4956C196.067 23.9482 196.128 24.4177 196.119 24.8883V28.8957C196.123 29.0954 196.105 29.2949 196.066 29.4908C196.04 29.6279 195.977 29.7555 195.885 29.86C195.793 29.9544 195.675 30.02 195.546 30.0486C195.368 30.0876 195.185 30.1052 195.003 30.1011H187.832C187.459 30.1093 187.086 30.0663 186.724 29.9732C186.459 29.9044 186.213 29.7725 186.009 29.5887C185.822 29.4077 185.689 29.1782 185.625 28.9259C185.544 28.611 185.506 28.2867 185.511 27.9617V27.2381C185.508 26.9553 185.546 26.6735 185.625 26.4019C185.696 26.1633 185.828 25.9476 186.009 25.7768C186.213 25.5932 186.459 25.4613 186.724 25.3923C187.086 25.2992 187.459 25.2562 187.832 25.2644H193.964V24.9784C193.968 24.7699 193.943 24.5618 193.888 24.3604C193.845 24.2003 193.756 24.0563 193.632 23.9458C193.488 23.8291 193.317 23.749 193.135 23.7123C192.868 23.6568 192.595 23.6317 192.321 23.6374H186.024C185.987 23.6426 185.95 23.6392 185.914 23.6274C185.879 23.6156 185.847 23.5958 185.821 23.5695C185.794 23.5432 185.775 23.5111 185.763 23.4758C185.751 23.4405 185.748 23.4029 185.753 23.3661V22.0999C185.748 22.0631 185.751 22.0255 185.763 21.9902C185.774 21.9549 185.794 21.9228 185.821 21.8965C185.847 21.8701 185.879 21.8503 185.914 21.8385C185.95 21.8267 185.987 21.8234 186.024 21.8286L192.533 21.8302ZM193.528 28.4441C193.589 28.4506 193.651 28.4439 193.71 28.4244C193.768 28.4048 193.822 28.3729 193.867 28.3308C193.944 28.2128 193.979 28.072 193.965 27.9316V26.6062H188.451C188.216 26.5819 187.982 26.6492 187.796 26.7941C187.729 26.8686 187.678 26.9557 187.646 27.0502C187.614 27.1447 187.6 27.2447 187.607 27.3443V27.6603C187.598 27.767 187.61 27.8745 187.642 27.9766C187.675 28.0787 187.727 28.1735 187.796 28.2554C187.981 28.4009 188.216 28.4685 188.451 28.4441H193.528Z" fill="#FF5E71"/>
<path d="M199.538 21.8302C199.759 21.8302 199.87 21.9458 199.869 22.177V24.9938H206.74V22.177C206.74 21.946 206.85 21.8302 207.071 21.8302H208.547C208.594 21.8237 208.642 21.8282 208.687 21.8433C208.732 21.8585 208.773 21.8838 208.807 21.9174C208.84 21.951 208.866 21.9919 208.881 22.037C208.896 22.082 208.901 22.1299 208.894 22.177V29.7697C208.894 29.9904 208.778 30.1008 208.547 30.1011H207.071C207.026 30.1075 206.98 30.1034 206.937 30.089C206.894 30.0747 206.855 30.0504 206.823 30.0183C206.791 29.9861 206.766 29.9469 206.752 29.9038C206.738 29.8606 206.733 29.8147 206.74 29.7697V26.7718H199.87V29.7697C199.876 29.8147 199.872 29.8606 199.858 29.9038C199.843 29.9469 199.819 29.9861 199.787 30.0183C199.755 30.0504 199.716 30.0747 199.672 30.089C199.629 30.1034 199.583 30.1075 199.538 30.1011H198.062C197.831 30.1011 197.716 29.9904 197.716 29.7697V22.177C197.709 22.1299 197.713 22.0819 197.728 22.0367C197.743 21.9916 197.769 21.9505 197.802 21.9169C197.836 21.8832 197.877 21.8579 197.922 21.8429C197.967 21.8278 198.015 21.8235 198.062 21.8302H199.538Z" fill="#FF5E71"/>
<path d="M212.586 21.8302C212.807 21.8302 212.917 21.9458 212.917 22.177V27.9617C212.917 28.0622 212.957 28.1126 213.038 28.1127H213.173C213.213 28.1154 213.252 28.107 213.287 28.0883C213.321 28.0696 213.35 28.0415 213.369 28.0072L217.889 22.7189C218.003 22.5758 218.127 22.4399 218.258 22.3119C218.368 22.2055 218.492 22.1142 218.627 22.0406C218.772 21.9655 218.927 21.9121 219.087 21.882C219.303 21.8434 219.522 21.8258 219.742 21.8295H220.586C221.048 21.8295 221.389 21.94 221.61 22.1609C221.831 22.3818 221.942 22.7985 221.942 23.4109V29.769C221.942 29.9897 221.826 30.1001 221.595 30.1004H220.119C220.074 30.1068 220.028 30.1027 219.985 30.0883C219.942 30.0739 219.902 30.0497 219.87 30.0176C219.838 29.9854 219.814 29.9462 219.799 29.9031C219.785 29.8599 219.781 29.814 219.787 29.769V23.9697C219.787 23.8691 219.747 23.8188 219.666 23.8186H219.531C219.492 23.8205 219.455 23.8309 219.421 23.8492C219.387 23.8674 219.358 23.893 219.335 23.9241L214.8 29.2124C214.66 29.3731 214.534 29.5111 214.423 29.6265C214.318 29.7379 214.196 29.8321 214.062 29.9054C213.92 29.9794 213.767 30.0301 213.61 30.0557C213.395 30.0891 213.178 30.1042 212.961 30.1011H212.147C211.686 30.1011 211.342 29.9932 211.116 29.7773C210.89 29.5615 210.777 29.1471 210.777 28.5343V22.177C210.77 22.1299 210.775 22.0819 210.79 22.0368C210.805 21.9917 210.83 21.9507 210.863 21.9171C210.897 21.8834 210.938 21.858 210.983 21.843C211.028 21.8279 211.076 21.8235 211.123 21.8302H212.586Z" fill="#FF5E71"/>
<path d="M225.481 21.8302C225.692 21.8302 225.797 21.9556 225.797 22.207V24.3311C225.792 24.5768 225.818 24.8221 225.873 25.0616C225.914 25.2428 226.012 25.4063 226.152 25.5287C226.312 25.6556 226.5 25.7411 226.701 25.7776C226.994 25.833 227.292 25.8581 227.591 25.8524H232.547V22.177C232.54 22.1299 232.544 22.0819 232.559 22.0367C232.574 21.9916 232.6 21.9505 232.633 21.9169C232.667 21.8832 232.708 21.8579 232.753 21.8429C232.798 21.8278 232.846 21.8235 232.893 21.8302H234.369C234.591 21.8302 234.701 21.9458 234.701 22.177V29.7697C234.708 29.8148 234.704 29.8607 234.689 29.9039C234.675 29.947 234.65 29.9862 234.618 30.0184C234.586 30.0505 234.547 30.0747 234.504 30.0891C234.46 30.1034 234.414 30.1075 234.369 30.1011H232.893C232.662 30.1011 232.546 29.9906 232.547 29.7697V27.5549H227.545C226.938 27.5653 226.331 27.5097 225.736 27.3892C225.298 27.3032 224.886 27.1176 224.531 26.8466C224.22 26.5955 223.987 26.2607 223.86 25.8817C223.714 25.4192 223.646 24.9356 223.658 24.4506V22.2066C223.658 21.9552 223.763 21.8296 223.974 21.8299L225.481 21.8302Z" fill="#FF5E71"/>
<path d="M244.253 21.8302C244.681 21.8215 245.108 21.8644 245.526 21.9581C245.825 22.0239 246.101 22.1696 246.324 22.3798C246.529 22.5936 246.672 22.8592 246.738 23.1481C246.825 23.526 246.866 23.9132 246.859 24.3011V25.7322C246.859 26.0539 246.789 26.2774 246.648 26.4027C246.462 26.5423 246.232 26.6092 246 26.5908H238.392V26.9526C238.392 27.4246 238.505 27.7663 238.731 27.9774C238.957 28.1885 239.396 28.2939 240.049 28.2936H246.331C246.368 28.2882 246.406 28.2916 246.441 28.3033C246.476 28.3151 246.508 28.3349 246.535 28.3612C246.561 28.3876 246.581 28.4197 246.593 28.4551C246.604 28.4904 246.608 28.528 246.603 28.5649V29.8311C246.608 29.8679 246.604 29.9055 246.593 29.9408C246.581 29.9762 246.561 30.0083 246.535 30.0346C246.508 30.0609 246.476 30.0808 246.441 30.0925C246.406 30.1043 246.368 30.1077 246.331 30.1024H239.838C239.263 30.1136 238.689 30.058 238.128 29.9367C237.723 29.8518 237.345 29.6681 237.028 29.4018C236.746 29.1464 236.54 28.8178 236.433 28.4524C236.303 27.9998 236.242 27.5303 236.252 27.0596V24.8884C236.242 24.4177 236.303 23.9483 236.433 23.4956C236.54 23.1303 236.746 22.8017 237.028 22.5462C237.345 22.2793 237.723 22.0931 238.128 22.0035C238.689 21.8767 239.263 21.8185 239.838 21.8302H244.253ZM238.392 25.2489H244.493C244.527 25.2539 244.563 25.2508 244.596 25.2397C244.63 25.2286 244.66 25.2099 244.685 25.1851C244.71 25.1602 244.729 25.1299 244.74 25.0966C244.751 25.0632 244.754 25.0277 244.749 24.9929V24.3598C244.773 24.1218 244.703 23.884 244.553 23.6971C244.422 23.5665 244.182 23.5014 243.83 23.5014H240.049C239.396 23.5014 238.957 23.6044 238.731 23.8103C238.505 24.0163 238.392 24.3602 238.392 24.8422L238.392 25.2489Z" fill="#FF5E71"/>
<path d="M257.751 21.8302C257.788 21.8249 257.825 21.8283 257.861 21.8401C257.896 21.8518 257.928 21.8717 257.955 21.898C257.981 21.9243 258.001 21.9564 258.012 21.9918C258.024 22.0271 258.028 22.0647 258.022 22.1016V23.3677C258.028 23.4046 258.024 23.4421 258.012 23.4775C258.001 23.5128 257.981 23.5449 257.954 23.5712C257.928 23.5975 257.896 23.6173 257.861 23.6291C257.825 23.6409 257.788 23.6443 257.751 23.639H251.906C251.632 23.6328 251.359 23.6606 251.092 23.7217C250.904 23.7642 250.732 23.8581 250.595 23.993C250.465 24.1374 250.376 24.3146 250.339 24.5056C250.284 24.7655 250.259 25.0307 250.264 25.2962V26.6373C250.258 26.9054 250.283 27.1733 250.339 27.4357C250.377 27.624 250.466 27.7985 250.595 27.9405C250.732 28.0756 250.904 28.1695 251.092 28.2118C251.359 28.2729 251.632 28.3007 251.906 28.2945H257.751C257.788 28.2891 257.825 28.2925 257.861 28.3042C257.896 28.316 257.928 28.3358 257.955 28.3622C257.981 28.3885 258.001 28.4206 258.013 28.456C258.024 28.4913 258.028 28.5289 258.022 28.5658V29.8319C258.028 29.8688 258.024 29.9064 258.012 29.9417C258.001 29.9771 257.981 30.0092 257.955 30.0355C257.928 30.0618 257.896 30.0817 257.861 30.0934C257.825 30.1052 257.788 30.1086 257.751 30.1033H251.695C251.12 30.1145 250.546 30.0589 249.985 29.9376C249.58 29.8527 249.202 29.669 248.885 29.4027C248.603 29.1473 248.397 28.8187 248.29 28.4533C248.161 28.0007 248.1 27.5312 248.109 27.0605V24.8884C248.1 24.4177 248.161 23.9482 248.29 23.4956C248.397 23.1303 248.603 22.8017 248.885 22.5462C249.203 22.2793 249.58 22.0932 249.985 22.0035C250.546 21.8767 251.12 21.8185 251.695 21.8302H257.751Z" fill="#FF5E71"/>
<path d="M261.26 21.8302C261.481 21.8302 261.591 21.946 261.591 22.177V25.0994H263.625C263.836 25.0994 264.017 25.092 264.168 25.077C264.302 25.0658 264.434 25.0354 264.56 24.9866C264.669 24.9428 264.768 24.879 264.854 24.7985C264.957 24.697 265.05 24.586 265.132 24.4671L266.804 22.0865C266.859 22.0116 266.925 21.9455 267 21.8907C267.083 21.8454 267.177 21.8246 267.272 21.8306H268.959C269.005 21.8257 269.05 21.8354 269.09 21.8585C269.129 21.8815 269.16 21.9166 269.177 21.9585C269.193 22.0066 269.196 22.0584 269.184 22.1077C269.172 22.157 269.146 22.202 269.11 22.2374L267.166 24.9041C266.904 25.2648 266.595 25.589 266.247 25.8682C266.454 25.9856 266.646 26.1271 266.82 26.2898C266.996 26.4565 267.157 26.6381 267.302 26.8324L269.456 29.7249C269.485 29.7589 269.503 29.8001 269.51 29.844C269.517 29.8879 269.511 29.9328 269.494 29.9738C269.476 30.0157 269.445 30.0508 269.406 30.0738C269.366 30.0969 269.321 30.1066 269.275 30.1016H267.573C267.478 30.1081 267.382 30.0925 267.294 30.0562C267.225 30.0139 267.166 29.9574 267.121 29.8906L265.283 27.3597C265.14 27.1411 264.939 26.9663 264.703 26.8549C264.404 26.7555 264.09 26.7121 263.776 26.7268H261.591V29.7703C261.598 29.8153 261.594 29.8612 261.579 29.9043C261.565 29.9475 261.541 29.9867 261.509 30.0188C261.476 30.051 261.437 30.0752 261.394 30.0896C261.351 30.104 261.305 30.1081 261.26 30.1016H259.784C259.553 30.1016 259.437 29.9912 259.437 29.7703V22.177C259.431 22.1299 259.435 22.0819 259.45 22.0367C259.465 21.9916 259.49 21.9505 259.524 21.9169C259.558 21.8832 259.599 21.8579 259.644 21.8429C259.689 21.8278 259.737 21.8235 259.784 21.8302H261.26Z" fill="#FF5E71"/>
<path d="M272.5 21.8302C272.721 21.8302 272.831 21.946 272.831 22.177V27.9617C272.831 28.0622 272.871 28.1126 272.952 28.1127H273.087C273.127 28.1154 273.166 28.1069 273.201 28.0883C273.235 28.0696 273.264 28.0415 273.283 28.0072L277.803 22.7189C277.917 22.5758 278.041 22.4399 278.172 22.3119C278.282 22.2054 278.406 22.1142 278.541 22.0406C278.686 21.9655 278.841 21.912 279.001 21.882C279.217 21.8434 279.437 21.8258 279.656 21.8295H280.5C280.962 21.8295 281.303 21.94 281.524 22.1609C281.745 22.3818 281.856 22.7985 281.856 23.4109V29.769C281.856 29.9897 281.74 30.1001 281.509 30.1004H280.033C279.988 30.1068 279.942 30.1027 279.899 30.0883C279.856 30.0739 279.816 30.0497 279.784 30.0176C279.752 29.9854 279.728 29.9462 279.714 29.9031C279.699 29.8599 279.695 29.814 279.701 29.769V23.9697C279.701 23.8691 279.661 23.8188 279.58 23.8186H279.445C279.406 23.8205 279.369 23.8309 279.335 23.8492C279.301 23.8674 279.272 23.893 279.249 23.9241L274.714 29.2124C274.574 29.3731 274.448 29.5111 274.338 29.6265C274.233 29.7379 274.11 29.8321 273.976 29.9054C273.834 29.9794 273.682 30.0301 273.524 30.0557C273.309 30.0891 273.093 30.1043 272.876 30.1011H272.062C271.6 30.1011 271.256 29.9932 271.031 29.7773C270.805 29.5615 270.693 29.1471 270.692 28.5343V22.177C270.685 22.1299 270.69 22.0819 270.705 22.0368C270.72 21.9917 270.745 21.9507 270.779 21.9171C270.812 21.8834 270.853 21.858 270.898 21.843C270.943 21.8279 270.991 21.8235 271.038 21.8302H272.5Z" fill="#FF5E71"/>
<path d="M285.546 21.8302C285.768 21.8302 285.878 21.9458 285.878 22.177V27.9617C285.878 28.0622 285.918 28.1126 285.999 28.1127H286.134C286.173 28.1154 286.213 28.107 286.247 28.0883C286.282 28.0697 286.311 28.0415 286.33 28.0073L290.849 22.7189C290.964 22.5759 291.087 22.4399 291.219 22.3119C291.329 22.2055 291.453 22.1143 291.588 22.0406C291.732 21.9655 291.887 21.9121 292.048 21.882C292.264 21.8434 292.483 21.8258 292.703 21.8295H293.547C294.008 21.8295 294.35 21.94 294.571 22.1609C294.792 22.3818 294.903 22.7985 294.902 23.4109V29.769C294.902 29.9897 294.787 30.1001 294.556 30.1004H293.08C293.035 30.1068 292.989 30.1027 292.946 30.0883C292.902 30.0739 292.863 30.0497 292.831 30.0176C292.799 29.9854 292.775 29.9462 292.76 29.9031C292.746 29.8599 292.742 29.814 292.748 29.769V23.9697C292.748 23.8691 292.708 23.8188 292.627 23.8186H292.492C292.453 23.8205 292.416 23.8309 292.382 23.8492C292.348 23.8674 292.319 23.893 292.296 23.9241L287.761 29.2124C287.621 29.3731 287.495 29.5111 287.384 29.6265C287.279 29.738 287.157 29.8321 287.023 29.9054C286.881 29.9794 286.728 30.0301 286.57 30.0557C286.356 30.0891 286.139 30.1043 285.922 30.1011H285.108C284.646 30.1011 284.302 29.9932 284.076 29.7773C283.85 29.5615 283.738 29.1472 283.738 28.5343V22.177C283.731 22.1299 283.735 22.082 283.75 22.0368C283.765 21.9917 283.791 21.9507 283.824 21.9171C283.858 21.8834 283.899 21.858 283.944 21.843C283.989 21.8279 284.037 21.8235 284.084 21.8302H285.546ZM285.682 18.4254C285.681 18.339 285.707 18.2544 285.757 18.1843C285.781 18.1503 285.813 18.1228 285.849 18.1044C285.886 18.0859 285.927 18.0771 285.969 18.0786C286.109 18.0913 286.241 18.1495 286.345 18.2443C286.425 18.3146 286.553 18.4151 286.729 18.5457C286.932 18.6935 287.146 18.8246 287.37 18.9378C287.644 19.0778 287.932 19.1911 288.228 19.2762C288.929 19.4672 289.667 19.4672 290.368 19.2762C290.666 19.1901 290.956 19.0768 291.234 18.9378C291.459 18.8267 291.673 18.6954 291.874 18.5457C292.044 18.4151 292.176 18.3147 292.266 18.2443C292.324 18.1921 292.39 18.149 292.462 18.1165C292.514 18.0931 292.57 18.0803 292.627 18.0786C292.668 18.0772 292.709 18.0861 292.746 18.1045C292.783 18.123 292.815 18.1504 292.838 18.1843C292.888 18.2546 292.915 18.339 292.914 18.4254V19.2084C292.915 19.3132 292.899 19.4174 292.869 19.5175C292.818 19.6406 292.734 19.7474 292.627 19.8265C292.454 19.9585 292.27 20.0768 292.078 20.1803C291.826 20.3172 291.564 20.4331 291.294 20.527C290.985 20.636 290.667 20.7216 290.345 20.783C290 20.8493 289.649 20.882 289.298 20.8808C288.944 20.8819 288.591 20.8491 288.244 20.783C287.923 20.7237 287.608 20.638 287.302 20.527C287.035 20.4305 286.776 20.3146 286.526 20.1803C286.334 20.0807 286.152 19.9621 285.983 19.8265C285.87 19.7504 285.781 19.6431 285.727 19.5175C285.696 19.4174 285.681 19.3132 285.682 19.2084V18.4254Z" fill="#FF5E71"/>
<path d="M152.459 39.9087C153.373 39.9087 154.024 40.0693 154.41 40.3906C154.797 40.7118 154.99 41.204 154.99 41.8671V42.4243C155.001 42.72 154.936 43.0135 154.801 43.2771C154.667 43.5407 154.467 43.7657 154.222 43.9309C154.487 44.0832 154.705 44.3061 154.852 44.5748C154.998 44.8435 155.067 45.1475 155.051 45.453V46.1457C155.054 46.4317 155.014 46.7164 154.93 46.9897C154.854 47.2322 154.72 47.4521 154.538 47.6295C154.332 47.8198 154.084 47.9591 153.815 48.0363C153.452 48.1404 153.076 48.1887 152.7 48.1797H145.529C145.486 48.1859 145.442 48.1819 145.401 48.1682C145.36 48.1544 145.322 48.1313 145.292 48.1005C145.261 48.0698 145.238 48.0323 145.224 47.9911C145.21 47.9498 145.207 47.906 145.213 47.863V46.7777C145.207 46.7347 145.21 46.6909 145.224 46.6497C145.238 46.6084 145.261 46.5709 145.292 46.5402C145.322 46.5095 145.36 46.4863 145.401 46.4726C145.442 46.4588 145.486 46.4548 145.529 46.461H152.053C152.294 46.4832 152.536 46.4222 152.738 46.2883C152.807 46.2248 152.862 46.1465 152.897 46.0591C152.932 45.9717 152.947 45.8775 152.941 45.7834V45.4676C152.949 45.3678 152.935 45.2675 152.899 45.1738C152.864 45.0801 152.809 44.9952 152.738 44.925C152.533 44.784 152.285 44.72 152.037 44.7441H145.634C145.423 44.7441 145.317 44.6337 145.317 44.4127V43.6144C145.317 43.4135 145.423 43.313 145.634 43.313H152.037C152.279 43.3355 152.521 43.2743 152.723 43.1397C152.791 43.0788 152.845 43.0031 152.88 42.9183C152.916 42.8335 152.931 42.7419 152.926 42.6503V42.3189C152.934 42.2247 152.92 42.1299 152.885 42.0421C152.849 41.9544 152.794 41.8763 152.723 41.8141C152.517 41.6902 152.277 41.6348 152.037 41.656H145.529C145.486 41.6621 145.442 41.6582 145.401 41.6444C145.36 41.6307 145.322 41.6075 145.292 41.5768C145.261 41.5461 145.238 41.5087 145.224 41.4675C145.211 41.4262 145.207 41.3824 145.213 41.3394V40.2243C145.207 40.1814 145.211 40.1376 145.224 40.0964C145.238 40.0552 145.261 40.0178 145.292 39.9871C145.322 39.9564 145.36 39.9333 145.401 39.9196C145.442 39.9059 145.486 39.902 145.529 39.9081L152.459 39.9087Z" fill="black"/>
<path d="M163.276 39.9087C163.848 39.8979 164.42 39.9561 164.978 40.0822C165.386 40.1706 165.766 40.3568 166.086 40.6248C166.368 40.8804 166.574 41.209 166.681 41.5742C166.81 42.0269 166.871 42.4963 166.862 42.967V46.9745C166.866 47.1742 166.848 47.3737 166.809 47.5695C166.783 47.7066 166.72 47.8341 166.628 47.9386C166.535 48.0331 166.418 48.0987 166.289 48.1275C166.11 48.1663 165.928 48.184 165.746 48.1799H158.575C158.202 48.1882 157.829 48.1451 157.468 48.0519C157.202 47.9832 156.957 47.8513 156.753 47.6673C156.565 47.4864 156.432 47.2569 156.368 47.0046C156.287 46.6897 156.249 46.3655 156.255 46.0405V45.317C156.251 45.0342 156.289 44.7523 156.368 44.4808C156.439 44.2421 156.572 44.0265 156.753 43.8558C156.957 43.6721 157.202 43.5402 157.468 43.4713C157.829 43.378 158.202 43.3349 158.575 43.3432H164.707V43.0572C164.711 42.8488 164.686 42.6407 164.632 42.4394C164.588 42.2793 164.499 42.1353 164.376 42.0248C164.231 41.9081 164.061 41.8279 163.879 41.7913C163.611 41.7358 163.338 41.7107 163.065 41.7164H156.767C156.73 41.7216 156.693 41.7182 156.658 41.7064C156.622 41.6946 156.59 41.6748 156.564 41.6485C156.538 41.6221 156.518 41.5901 156.506 41.5548C156.494 41.5195 156.491 41.4819 156.496 41.4451V40.1789C156.491 40.1421 156.494 40.1045 156.506 40.0692C156.518 40.0339 156.538 40.0018 156.564 39.9755C156.59 39.9491 156.622 39.9293 156.658 39.9175C156.693 39.9058 156.73 39.9024 156.767 39.9076L163.276 39.9087ZM164.271 46.5227C164.332 46.5292 164.394 46.5225 164.453 46.503C164.511 46.4834 164.565 46.4516 164.61 46.4095C164.687 46.2914 164.722 46.1506 164.708 46.0103V44.6846H159.194C158.959 44.6604 158.725 44.7278 158.539 44.8727C158.472 44.9472 158.421 45.0343 158.389 45.1288C158.357 45.2233 158.344 45.3233 158.351 45.423V45.739C158.341 45.8456 158.353 45.9531 158.385 46.0551C158.418 46.1572 158.47 46.2519 158.539 46.3339C158.724 46.4794 158.959 46.5471 159.194 46.5227H164.271Z" fill="black"/>
<path d="M176.714 39.9087C177.628 39.9087 178.273 40.0693 178.65 40.3906C179.026 40.7118 179.215 41.204 179.215 41.8671V42.4397C179.226 42.7332 179.16 43.0245 179.022 43.2839C178.885 43.5433 178.681 43.7615 178.431 43.9162C178.706 44.0637 178.933 44.2869 179.085 44.5594C179.237 44.8319 179.308 45.1422 179.289 45.4537V46.1313C179.293 46.4171 179.252 46.7017 179.169 46.9751C179.093 47.2195 178.958 47.4418 178.778 47.6232C178.575 47.8161 178.33 47.958 178.062 48.037C177.707 48.1409 177.339 48.1893 176.97 48.1804H168.894C168.835 48.189 168.775 48.1836 168.718 48.1646C168.661 48.1457 168.609 48.1137 168.567 48.0713C168.524 48.0289 168.492 47.9772 168.473 47.9203C168.454 47.8634 168.449 47.8028 168.457 47.7435V40.3611C168.448 40.3008 168.452 40.2391 168.47 40.1809C168.489 40.1226 168.52 40.0695 168.563 40.0256C168.605 39.9817 168.657 39.9483 168.715 39.928C168.772 39.9078 168.834 39.9012 168.894 39.9089L176.714 39.9087ZM170.612 43.3136H176.322C176.55 43.3357 176.777 43.2741 176.963 43.1403C177.028 43.0744 177.079 42.9953 177.111 42.9082C177.144 42.8212 177.157 42.7281 177.151 42.6354V42.3041C177.159 42.2061 177.145 42.1074 177.112 42.0151C177.078 41.9227 177.024 41.8388 176.955 41.7692C176.761 41.6352 176.526 41.5738 176.292 41.5958H170.809C170.677 41.5958 170.612 41.6661 170.612 41.807V43.3136ZM170.612 44.6546V46.2962C170.608 46.3229 170.611 46.3501 170.619 46.3757C170.628 46.4012 170.642 46.4245 170.661 46.4435C170.68 46.4626 170.704 46.4769 170.729 46.4854C170.755 46.4939 170.782 46.4964 170.809 46.4925H176.322C176.553 46.5149 176.785 46.4563 176.978 46.3268C177.044 46.2627 177.095 46.1848 177.127 46.0989C177.16 46.0129 177.173 45.9209 177.166 45.8292V45.3927C177.173 45.2932 177.16 45.1932 177.128 45.0987C177.095 45.0042 177.044 44.9171 176.978 44.8427C176.852 44.7172 176.628 44.6545 176.307 44.6546H170.612Z" fill="black"/>
<path d="M188.676 39.9087C189.248 39.8979 189.82 39.9561 190.378 40.0821C190.786 40.1705 191.166 40.3568 191.486 40.6248C191.768 40.8803 191.974 41.2089 192.081 41.5742C192.21 42.0268 192.271 42.4963 192.262 42.967V45.1364C192.271 45.6071 192.21 46.0766 192.081 46.5292C191.974 46.8946 191.768 47.2232 191.486 47.4786C191.167 47.7458 190.786 47.9296 190.378 48.0133C189.819 48.1339 189.248 48.1896 188.676 48.1792H184.413C183.838 48.1903 183.264 48.1347 182.703 48.0133C182.297 47.9285 181.92 47.7448 181.603 47.4786C181.321 47.223 181.115 46.8945 181.008 46.5292C180.878 46.0766 180.817 45.6071 180.827 45.1364V42.967C180.817 42.4963 180.878 42.0269 181.008 41.5742C181.115 41.209 181.321 40.8804 181.603 40.6248C181.92 40.3578 182.298 40.1716 182.703 40.0821C183.263 39.9553 183.838 39.8971 184.413 39.9087H188.676ZM182.981 44.7595C182.976 45.0278 183.001 45.2959 183.057 45.5584C183.096 45.748 183.187 45.9227 183.32 46.0627C183.461 46.197 183.636 46.2907 183.825 46.334C184.087 46.3953 184.355 46.4232 184.624 46.4173H188.466C188.739 46.4238 189.013 46.3958 189.279 46.334C189.469 46.2908 189.644 46.1971 189.784 46.0627C189.918 45.9226 190.009 45.7479 190.048 45.5584C190.104 45.2959 190.129 45.0278 190.123 44.7595V43.3284C190.128 43.0653 190.103 42.8025 190.048 42.5452C190.008 42.3537 189.917 42.1766 189.784 42.0328C189.646 41.8953 189.471 41.801 189.279 41.7614C189.012 41.706 188.739 41.681 188.466 41.6867H184.624C184.356 41.6814 184.088 41.7065 183.825 41.7614C183.634 41.8011 183.459 41.8953 183.32 42.0328C183.188 42.1765 183.097 42.3536 183.057 42.5452C183.002 42.8025 182.977 43.0653 182.981 43.3284V44.7595Z" fill="black"/>
<path d="M203.455 39.9087C203.908 39.9087 204.231 40.0141 204.427 40.2249C204.636 40.4724 204.741 40.7909 204.721 41.1141V46.4017H206.725C206.77 46.3953 206.816 46.3994 206.859 46.4138C206.902 46.4282 206.941 46.4525 206.974 46.4846C207.006 46.5167 207.03 46.5559 207.044 46.5991C207.059 46.6422 207.063 46.6881 207.056 46.7331V50.6652C207.063 50.7102 207.059 50.7561 207.044 50.7993C207.03 50.8425 207.006 50.8817 206.974 50.9139C206.942 50.9461 206.902 50.9704 206.859 50.9849C206.816 50.9993 206.77 51.0035 206.725 50.9971H205.52C205.289 50.9971 205.173 50.8865 205.174 50.6652V48.1797H195.321V50.6652C195.327 50.7102 195.323 50.7561 195.309 50.7993C195.294 50.8425 195.27 50.8817 195.238 50.9139C195.206 50.9461 195.166 50.9704 195.123 50.9849C195.08 50.9993 195.034 51.0035 194.989 50.9971H193.784C193.553 50.9971 193.438 50.8865 193.438 50.6652V46.7338C193.438 46.5131 193.553 46.4027 193.784 46.4024H195.079C195.278 46.4003 195.473 46.3458 195.644 46.2445C195.83 46.1389 195.999 45.8953 196.149 45.5138C196.36 44.9515 196.509 44.3681 196.594 43.7737C196.719 43.0261 196.862 42.0795 197.023 40.9339C197.048 40.6597 197.155 40.3996 197.332 40.1885C197.498 40.0024 197.802 39.9095 198.244 39.9096L203.455 39.9087ZM202.582 46.4022V42.0633C202.582 41.9029 202.486 41.8228 202.295 41.8228H199.026C198.866 41.8228 198.765 41.8554 198.725 41.9208C198.682 41.9929 198.651 42.0719 198.634 42.1543C198.604 42.3551 198.564 42.6236 198.514 42.9598C198.463 43.296 198.403 43.6625 198.333 44.0595C198.262 44.4567 198.182 44.861 198.092 45.2725C198.001 45.6839 197.901 46.0605 197.79 46.4022H202.582Z" fill="black"/>
</svg>
