<svg width="264" height="52" viewBox="0 0 264 52" fill="none" xmlns="http://www.w3.org/2000/svg">
<path d="M11.7879 41.7607L38.7422 41.8032V43.9768C38.7422 44.941 38.5522 45.8958 38.1829 46.7866C37.8137 47.6773 37.2725 48.4866 36.5903 49.168C35.9081 49.8495 35.0983 50.3898 34.2071 50.7581C33.316 51.1264 32.361 51.3154 31.3967 51.3144L6.33206e-07 51.28V6.63366C-0.000766646 4.8783 0.6958 3.19453 1.93647 1.95274C3.17715 0.710955 4.86029 0.0128773 6.61566 0.0120678H38.7591V2.9491C38.7591 4.69537 38.0658 6.3702 36.8315 7.60556C35.5973 8.84091 33.9231 9.53571 32.1768 9.53729H11.7879V41.7607Z" fill="black"/>
<path d="M118.101 23.3975C117.849 23.6444 117.649 23.9387 117.512 24.2635C117.375 24.5882 117.304 24.937 117.302 25.2895C117.301 25.6419 117.37 25.9912 117.505 26.3169C117.639 26.6426 117.837 26.9383 118.087 27.1869L120.795 29.8945L132.38 41.7609V44.4685C132.38 46.2751 131.662 48.0076 130.384 49.2851C129.107 50.5625 127.374 51.2802 125.568 51.2802H58.8863V49.4731C58.8865 47.4276 59.6992 45.466 61.1457 44.0197C62.5921 42.5734 64.5538 41.7609 66.5993 41.7609H120.585L112.317 33.1463C110.266 31.0164 109.141 28.1607 109.189 25.2037C109.237 22.2467 110.453 19.429 112.573 17.3668L120.585 9.5389H100.215C98.4688 9.53732 96.7946 8.84252 95.5604 7.60717C94.3261 6.37181 93.6328 4.69698 93.6328 2.95071V0.0186501H125.797C127.543 0.0186501 129.217 0.712137 130.452 1.94655C131.686 3.18095 132.38 4.85517 132.38 6.60089V9.40681L118.101 23.3975Z" fill="black"/>
<path d="M24.5887 21.3902L36.9635 21.3673C36.9635 23.4465 36.1386 25.4407 34.6697 26.9123C33.2008 28.3839 31.2081 29.2125 29.1289 29.2163L16.7541 29.2392C16.7541 27.16 17.5791 25.1658 19.048 23.6943C20.5168 22.2227 22.5095 21.3941 24.5887 21.3902Z" fill="black"/>
<path d="M79.5663 38.2724L79.5115 15.3717L69.2677 32.5283C68.9583 33.0464 68.5198 33.4754 67.995 33.7733C67.4702 34.0712 66.877 34.2277 66.2736 34.2277C65.6762 34.2277 65.0889 34.0743 64.5679 33.7822C64.0469 33.4901 63.6096 33.069 63.2981 32.5593L53.0583 15.8089V51.28H50.2333C48.7791 51.28 47.3845 50.7024 46.3563 49.6741C45.328 48.6459 44.7503 47.2513 44.7503 45.7972V0.0128632H48.9778C49.9227 0.0129065 50.8514 0.257204 51.674 0.722039C52.4966 1.18687 53.185 1.85646 53.6725 2.66581L65.9847 23.1083C66.0271 23.1787 66.087 23.2368 66.1586 23.2771C66.2301 23.3174 66.311 23.3384 66.3931 23.3381C66.4752 23.3379 66.5559 23.3163 66.6272 23.2755C66.6985 23.2348 66.7581 23.1762 66.8 23.1056L78.9028 2.69828C79.388 1.88003 80.0777 1.20214 80.9043 0.731298C81.7309 0.260453 82.6658 0.0128552 83.617 0.0128632H87.8198L87.8669 32.7817C87.8679 33.5024 87.7269 34.2162 87.4518 34.8823C87.1767 35.5484 86.773 36.1537 86.2638 36.6637C85.7546 37.1737 85.1498 37.5782 84.4841 37.8543C83.8184 38.1303 83.1048 38.2724 82.3841 38.2724H79.5663Z" fill="#FF5E71"/>
<path d="M150.078 9.76129V10.4064C150.078 10.7764 149.931 11.1311 149.67 11.3927C149.408 11.6543 149.053 11.8012 148.683 11.8012H141.573V2.21284C141.573 2.02954 141.609 1.84803 141.679 1.67867C141.75 1.50931 141.852 1.35543 141.982 1.22581C142.112 1.09618 142.265 0.993355 142.435 0.923203C142.604 0.853051 142.786 0.816948 142.969 0.816948H149.874V1.46179C149.874 1.64497 149.838 1.82636 149.768 1.9956C149.698 2.16484 149.595 2.31861 149.465 2.44814C149.336 2.57768 149.182 2.68043 149.013 2.75053C148.844 2.82063 148.662 2.85671 148.479 2.85671H144.1V5.24179H149.199V5.82429C149.199 6.19422 149.053 6.549 148.791 6.81059C148.529 7.07219 148.175 7.21918 147.805 7.21922H144.1V9.76129H150.078Z" fill="black"/>
<path d="M159.886 9.40023C159.901 9.74438 159.83 10.0869 159.68 10.3967C159.529 10.7064 159.303 10.9735 159.022 11.1736C158.447 11.592 157.589 11.8012 156.449 11.8012H151.945V4.74865C151.945 4.56615 151.981 4.38543 152.051 4.21682C152.121 4.04821 152.224 3.89502 152.353 3.76598C152.482 3.63694 152.635 3.53458 152.803 3.46476C152.972 3.39493 153.153 3.359 153.335 3.35902H156.261C157.317 3.35902 158.144 3.54991 158.74 3.93171C159.02 4.09521 159.25 4.33073 159.407 4.61367C159.565 4.8966 159.643 5.21658 159.634 5.54019C159.642 5.93294 159.53 6.31867 159.313 6.64637C159.084 6.97723 158.766 7.23585 158.395 7.39179C159.388 7.72666 159.885 8.39614 159.886 9.40023ZM154.189 6.82666H156.041C156.899 6.82666 157.328 6.52338 157.328 5.91684C157.328 5.32069 156.899 5.02251 156.041 5.0223H154.189V6.82666ZM157.595 9.2119C157.605 9.07624 157.582 8.94 157.528 8.81543C157.473 8.69085 157.388 8.58183 157.281 8.49812C157.071 8.34644 156.742 8.27054 156.292 8.27043H154.189V10.1379H156.245C157.145 10.1379 157.595 9.82926 157.595 9.2119Z" fill="black"/>
<path d="M168.822 3.77488C169.46 4.12989 169.984 4.65731 170.336 5.29675C170.697 6.00373 170.885 6.78615 170.885 7.57988C170.885 8.3736 170.697 9.15602 170.336 9.863C169.984 10.5026 169.46 11.0302 168.822 11.3854C168.167 11.7492 167.429 11.9359 166.68 11.9269C165.603 11.9269 164.755 11.5868 164.138 10.9067V13.4597C164.138 13.8272 163.992 14.1796 163.732 14.4394C163.472 14.6993 163.12 14.8453 162.752 14.8453H161.69V4.70317C161.69 4.34668 161.832 4.00479 162.084 3.75271C162.336 3.50064 162.678 3.35902 163.034 3.35902H164.028V4.33198C164.635 3.59967 165.519 3.23347 166.679 3.23336C167.429 3.22422 168.167 3.41088 168.822 3.77488ZM167.802 9.2826C168.205 8.85903 168.406 8.29153 168.406 7.58011C168.406 6.8687 168.205 6.30094 167.802 5.87683C167.391 5.4695 166.835 5.241 166.256 5.241C165.677 5.241 165.122 5.4695 164.711 5.87683C164.308 6.3004 164.107 6.86816 164.106 7.58011C164.106 8.29207 164.308 8.85956 164.711 9.2826C165.122 9.68973 165.678 9.9181 166.256 9.9181C166.835 9.9181 167.391 9.68973 167.802 9.2826Z" fill="black"/>
<path d="M178.747 4.16712C179.448 4.78962 179.799 5.72858 179.798 6.98397V10.414C179.798 10.7819 179.652 11.1347 179.392 11.3948C179.132 11.6549 178.779 11.8011 178.411 11.8011H177.507V10.7498C177.046 11.5344 176.188 11.9268 174.934 11.9269C174.354 11.9408 173.778 11.8283 173.246 11.5971C172.803 11.405 172.424 11.089 172.156 10.6872C171.903 10.2947 171.772 9.83628 171.779 9.36953C171.765 9.01204 171.839 8.65656 171.993 8.33391C172.148 8.01125 172.379 7.73116 172.666 7.51794C173.257 7.06801 174.169 6.84305 175.404 6.84305H177.35C177.35 6.30957 177.188 5.89906 176.864 5.61154C176.539 5.32402 176.053 5.18009 175.404 5.17977C174.954 5.17987 174.506 5.25135 174.078 5.39156L174.03 5.40762C173.714 5.51689 173.369 5.50883 173.059 5.38492C172.749 5.261 172.493 5.02951 172.339 4.73274L172.093 4.25421C172.598 3.90969 173.158 3.6548 173.749 3.50075C174.395 3.32253 175.063 3.2328 175.733 3.23401C177.042 3.23358 178.046 3.54462 178.747 4.16712ZM176.66 9.98882C176.985 9.79498 177.23 9.49171 177.351 9.13348V8.27043H175.672C174.668 8.27043 174.166 8.6 174.166 9.25914C174.161 9.40424 174.192 9.54824 174.257 9.67831C174.321 9.80838 174.417 9.92046 174.535 10.0046C174.834 10.2031 175.189 10.2994 175.548 10.279C175.938 10.2861 176.323 10.1857 176.66 9.98882Z" fill="black"/>
<path d="M188.5 8.12935C188.776 8.45209 188.924 8.86537 188.915 9.29031C188.92 9.81176 188.723 10.3149 188.366 10.6949C187.951 11.1284 187.433 11.4496 186.86 11.6286C186.161 11.8576 185.429 11.9689 184.694 11.958C184.04 11.9585 183.388 11.8902 182.748 11.7543C182.134 11.6265 181.538 11.4207 180.975 11.1419L181.153 10.6806C181.277 10.3652 181.513 10.1067 181.816 9.95457C182.119 9.80249 182.468 9.76754 182.795 9.85641C183.38 10.0048 183.981 10.0784 184.584 10.0753C185.051 10.0974 185.516 10.0086 185.942 9.81624C186.271 9.64345 186.436 9.40022 186.436 9.08656C186.441 8.96154 186.411 8.83767 186.35 8.72839C186.289 8.6191 186.2 8.52857 186.091 8.46663C185.781 8.30717 185.434 8.23396 185.087 8.25468H184.122C183.92 8.25468 183.726 8.17453 183.583 8.03184C183.441 7.88916 183.361 7.69563 183.361 7.49383C183.361 7.29202 183.441 7.0985 183.583 6.95581C183.726 6.81313 183.92 6.73298 184.122 6.73298H184.866C185.208 6.75229 185.549 6.68188 185.855 6.52874C185.962 6.47146 186.052 6.38526 186.113 6.27991C186.174 6.17457 186.204 6.05426 186.2 5.93259C186.198 5.79697 186.157 5.66487 186.08 5.55309C186.003 5.4413 185.895 5.35487 185.769 5.30479C185.38 5.13868 184.959 5.06348 184.537 5.08496C184.029 5.08901 183.523 5.15572 183.031 5.28357C182.703 5.36338 182.356 5.31797 182.06 5.15622C181.763 4.99447 181.538 4.72799 181.427 4.4088L181.273 3.97092C182.347 3.47986 183.512 3.21806 184.694 3.20219C185.387 3.19226 186.077 3.28739 186.742 3.48435C187.277 3.63406 187.766 3.9177 188.162 4.30852C188.327 4.4743 188.458 4.67133 188.547 4.88817C188.636 5.10501 188.681 5.33735 188.679 5.57169C188.682 5.96016 188.555 6.33848 188.319 6.64637C188.059 6.98002 187.719 7.242 187.33 7.40754C187.781 7.53196 188.186 7.78236 188.5 8.12935Z" fill="black"/>
<path d="M192.079 3.35983H193.121V8.38131L196.813 3.87081C196.944 3.71107 197.109 3.58237 197.295 3.494C197.482 3.40563 197.686 3.35981 197.892 3.35983H199.476V10.4077C199.476 10.7775 199.329 11.1322 199.067 11.3936C198.806 11.6551 198.451 11.802 198.082 11.802H197.044V6.78053L193.365 11.2904C193.235 11.4502 193.071 11.5791 192.884 11.6676C192.698 11.7561 192.494 11.802 192.288 11.802H190.688V4.74945C190.689 4.38083 190.835 4.02737 191.096 3.76679C191.357 3.50621 191.71 3.35983 192.079 3.35983Z" fill="black"/>
<path d="M203.224 3.35983H204.262V8.38131L207.957 3.86599C208.087 3.70756 208.25 3.57991 208.435 3.49226C208.62 3.40461 208.822 3.35916 209.027 3.35918H210.616V10.4187C210.616 10.7852 210.471 11.1367 210.212 11.3958C209.952 11.655 209.601 11.8006 209.234 11.8006H208.185V6.77909L204.508 11.2875C204.377 11.4478 204.212 11.577 204.025 11.6658C203.838 11.7545 203.634 11.8006 203.427 11.8006H201.83V4.75363C201.83 4.38393 201.977 4.02943 202.238 3.76807C202.5 3.50671 202.854 3.35987 203.224 3.35983ZM204.233 0.0175345C204.393 0.015036 204.55 0.0613744 204.683 0.150378C204.816 0.239382 204.919 0.366813 204.977 0.515661C205.025 0.648322 205.099 0.76976 205.195 0.872383C205.309 0.979912 205.444 1.0626 205.591 1.11517C205.738 1.16774 205.895 1.18903 206.051 1.17769C206.209 1.18797 206.367 1.16623 206.517 1.11377C206.667 1.06131 206.804 0.979208 206.921 0.872383C207.022 0.770628 207.1 0.647783 207.148 0.512611C207.207 0.364205 207.309 0.237243 207.442 0.148711C207.575 0.0601789 207.732 0.0142982 207.891 0.0172109H207.914C208.047 0.0175589 208.178 0.050938 208.296 0.114365C208.413 0.177791 208.513 0.269287 208.586 0.38069C208.659 0.492092 208.704 0.619929 208.716 0.752779C208.728 0.885629 208.707 1.01936 208.654 1.14202C208.286 2.0137 207.424 2.44948 206.066 2.44937C204.715 2.44937 203.857 2.0131 203.492 1.14057C203.44 1.01793 203.419 0.884335 203.431 0.751681C203.443 0.619026 203.488 0.491426 203.561 0.380258C203.635 0.26909 203.734 0.177799 203.852 0.114512C203.969 0.0512249 204.1 0.0179136 204.233 0.0175345Z" fill="black"/>
<path d="M214.563 11.3696C213.871 11.0205 213.289 10.4852 212.884 9.8238C212.574 9.32369 212.371 8.76465 212.288 8.18202C212.204 7.59938 212.243 7.00581 212.401 6.4388C212.558 5.87179 212.832 5.34366 213.204 4.8878C213.577 4.43193 214.039 4.05824 214.563 3.79031C215.314 3.41091 216.147 3.21978 216.988 3.23337C217.8 3.21468 218.602 3.40656 219.318 3.79031C219.966 4.1443 220.477 4.70505 220.769 5.3832L219.849 5.87747C219.602 6.00594 219.321 6.05727 219.044 6.02485C218.767 5.99243 218.506 5.87775 218.295 5.69558C217.922 5.39065 217.453 5.22961 216.972 5.24179C216.679 5.23286 216.387 5.28395 216.115 5.39192C215.842 5.49988 215.594 5.66243 215.387 5.8696C214.968 6.28803 214.759 6.8582 214.759 7.58012C214.759 8.30203 214.969 8.8721 215.387 9.29031C215.594 9.49762 215.842 9.66028 216.114 9.76826C216.387 9.87623 216.679 9.92723 216.972 9.91812C217.455 9.93178 217.928 9.7708 218.302 9.46466C218.511 9.28352 218.77 9.16974 219.045 9.13821C219.32 9.10667 219.598 9.15884 219.843 9.2879L220.769 9.79326C220.468 10.4598 219.959 11.0104 219.318 11.3621C218.604 11.751 217.8 11.9458 216.988 11.927C216.146 11.9406 215.314 11.7493 214.563 11.3696Z" fill="black"/>
<path d="M225.979 8.6H224.708V10.4105C224.708 10.7793 224.562 11.1331 224.301 11.3939C224.04 11.6547 223.686 11.8012 223.317 11.8012H222.26V4.74993C222.26 4.56728 222.296 4.38642 222.366 4.21767C222.436 4.04891 222.539 3.89558 222.668 3.76642C222.797 3.63726 222.95 3.53481 223.119 3.4649C223.288 3.395 223.468 3.35902 223.651 3.35902H224.708V6.63865H226.026L227.763 4.15186C227.934 3.90706 228.162 3.70715 228.426 3.56912C228.691 3.43109 228.985 3.35901 229.284 3.35902H230.922L227.972 7.40754L230.191 10.4992C230.28 10.6221 230.332 10.7669 230.343 10.9176C230.354 11.0684 230.324 11.2194 230.255 11.3539C230.186 11.4884 230.081 11.6013 229.952 11.6801C229.823 11.759 229.674 11.8007 229.523 11.8007H228.239L225.979 8.6Z" fill="black"/>
<path d="M233.72 3.35983H234.767V8.38131L238.461 3.86936C238.591 3.70998 238.755 3.58159 238.942 3.49347C239.128 3.40535 239.331 3.3597 239.537 3.35983H241.123V10.4108C241.123 10.7796 240.976 11.1332 240.715 11.394C240.455 11.6547 240.101 11.8012 239.732 11.8012H238.691V6.77973L235.011 11.2914C234.881 11.4507 234.717 11.5791 234.531 11.6673C234.346 11.7555 234.143 11.8012 233.937 11.8012H232.336V4.74463C232.336 4.37745 232.482 4.02536 232.741 3.76571C233.001 3.50606 233.353 3.36008 233.72 3.35983Z" fill="black"/>
<path d="M244.874 3.35983H245.908V8.38131L249.6 3.87082C249.731 3.71108 249.896 3.58238 250.082 3.49401C250.269 3.40564 250.473 3.35981 250.679 3.35983H252.263V10.4079C252.263 10.7777 252.116 11.1323 251.855 11.3937C251.593 11.6551 251.239 11.802 250.869 11.802H249.831V6.78054L246.155 11.2875C246.024 11.4483 245.858 11.5778 245.671 11.6667C245.484 11.7557 245.279 11.8018 245.071 11.8017H243.476V4.75781C243.476 4.57421 243.512 4.39241 243.582 4.22279C243.652 4.05317 243.755 3.89904 243.885 3.76923C244.015 3.63941 244.169 3.53644 244.339 3.46619C244.508 3.39595 244.69 3.35981 244.874 3.35983ZM245.879 0.0175357C246.039 0.0150144 246.196 0.0613432 246.329 0.15035C246.462 0.239357 246.565 0.366801 246.623 0.515663C246.671 0.648323 246.745 0.769762 246.841 0.872384C246.955 0.979934 247.09 1.06264 247.237 1.11521C247.384 1.16778 247.541 1.18906 247.697 1.17769C247.855 1.18797 248.014 1.16624 248.163 1.11378C248.313 1.06132 248.45 0.979212 248.567 0.872384C248.669 0.770638 248.746 0.647794 248.794 0.512612C248.853 0.364206 248.956 0.237228 249.088 0.148692C249.221 0.0601566 249.378 0.0142867 249.537 0.017212H249.56C249.693 0.0175335 249.824 0.0508913 249.942 0.114307C250.059 0.177723 250.159 0.269216 250.232 0.380622C250.306 0.492028 250.35 0.619878 250.362 0.752741C250.374 0.885604 250.353 1.01935 250.301 1.14202C249.933 2.0137 249.07 2.44948 247.713 2.44937C246.362 2.44937 245.503 2.0131 245.138 1.14057C245.086 1.01796 245.065 0.884376 245.077 0.751731C245.089 0.619086 245.134 0.4915 245.207 0.380328C245.281 0.269155 245.38 0.177851 245.498 0.114552C245.615 0.0512539 245.746 0.0179277 245.879 0.0175357H245.879Z" fill="black"/>
<path d="M149.623 30.6314V25.5786L147.36 29.3738C147.28 29.5084 147.166 29.6199 147.03 29.6973C146.893 29.7747 146.739 29.8154 146.583 29.8154C146.424 29.8154 146.268 29.7737 146.131 29.6944C145.993 29.6152 145.879 29.5013 145.8 29.364L143.598 25.5631V30.6314H142.784C142.414 30.6314 142.058 30.4841 141.796 30.2219C141.534 29.9597 141.386 29.6042 141.386 29.2334V22.1892H143.119C143.369 22.1892 143.615 22.2562 143.83 22.3831C144.045 22.51 144.222 22.6923 144.343 22.911L146.482 26.7774C146.498 26.8068 146.522 26.8313 146.55 26.8485C146.579 26.8657 146.612 26.875 146.646 26.8755C146.679 26.8759 146.712 26.8675 146.741 26.851C146.771 26.8346 146.795 26.8107 146.812 26.7818L149.109 22.8787C149.232 22.6687 149.408 22.4947 149.62 22.3737C149.831 22.2528 150.07 22.1892 150.314 22.1892H151.805L151.832 29.2273C151.832 29.4114 151.797 29.5938 151.727 29.7642C151.657 29.9345 151.554 30.0893 151.424 30.2197C151.294 30.3501 151.139 30.4536 150.969 30.5242C150.799 30.5949 150.617 30.6312 150.433 30.6312L149.623 30.6314Z" fill="#FF5E71"/>
<path d="M161.701 27.1007H155.947C156.048 27.6038 156.341 28.0481 156.762 28.3404C157.235 28.6567 157.795 28.8159 158.363 28.7955C158.762 28.8026 159.158 28.7361 159.532 28.5995C159.581 28.5808 159.629 28.5606 159.677 28.5387C159.939 28.4128 160.235 28.3736 160.521 28.4266C160.808 28.4796 161.07 28.6222 161.27 28.8338L161.784 29.3917C160.989 30.3022 159.827 30.7575 158.301 30.7575C157.426 30.7749 156.56 30.5839 155.774 30.2002C155.073 29.8577 154.485 29.3212 154.079 28.6546C153.676 27.9764 153.47 27.1995 153.483 26.4107C153.472 25.6258 153.675 24.8527 154.071 24.1748C154.456 23.5175 155.016 22.9797 155.688 22.6209C156.389 22.2589 157.167 22.0681 157.956 22.0641C158.746 22.06 159.525 22.2428 160.231 22.5976C160.892 22.9458 161.44 23.4769 161.808 24.1275C162.2 24.8345 162.398 25.633 162.381 26.4414C162.381 26.4447 162.381 26.4496 162.381 26.4565C162.372 26.6308 162.296 26.7949 162.17 26.9148C162.043 27.0348 161.875 27.1014 161.701 27.1007ZM156.606 24.3861C156.222 24.7127 155.975 25.1721 155.915 25.6727H159.705C159.751 25.6726 159.796 25.6617 159.837 25.6408C159.878 25.6199 159.914 25.5896 159.941 25.5524C159.968 25.5152 159.986 25.4721 159.993 25.4267C160 25.3813 159.996 25.3348 159.982 25.2911C159.871 24.9415 159.663 24.6305 159.383 24.3938C158.996 24.0711 158.504 23.9009 158.001 23.9151C157.494 23.8992 156.999 24.0664 156.606 24.3861Z" fill="#FF5E71"/>
<path d="M169.332 30.6314L167.48 28.0414L166.18 29.7998C165.989 30.0575 165.741 30.2669 165.455 30.4112C165.169 30.5555 164.852 30.6307 164.532 30.6307H162.898L166.146 26.3781L163.897 23.3749C163.814 23.2647 163.764 23.1337 163.752 22.9965C163.739 22.8594 163.765 22.7215 163.827 22.5984C163.889 22.4752 163.983 22.3717 164.1 22.2993C164.218 22.2269 164.352 22.1885 164.49 22.1885H165.754L167.543 24.6522L168.628 23.1959C168.861 22.8833 169.164 22.6294 169.512 22.4545C169.861 22.2796 170.245 22.1885 170.635 22.1885H171.984L168.845 26.3155L171.156 29.3704C171.244 29.4871 171.298 29.626 171.312 29.7716C171.325 29.9172 171.298 30.0637 171.233 30.1946C171.168 30.3256 171.068 30.4357 170.943 30.5128C170.819 30.5898 170.676 30.6307 170.529 30.6307L169.332 30.6314Z" fill="#FF5E71"/>
<path d="M179.453 22.9973C180.154 23.6198 180.505 24.5587 180.504 25.8141V29.2464C180.504 29.6137 180.359 29.966 180.099 30.2257C179.839 30.4855 179.487 30.6314 179.119 30.6314H178.214V29.5801C177.753 30.3646 176.895 30.7569 175.64 30.757C175.061 30.771 174.485 30.6585 173.953 30.4273C173.51 30.2352 173.131 29.9193 172.863 29.5175C172.61 29.125 172.479 28.6666 172.486 28.1998C172.472 27.8424 172.546 27.4869 172.7 27.1642C172.855 26.8415 173.085 26.5614 173.373 26.3481C173.964 25.8982 174.876 25.6732 176.111 25.6732H178.057C178.057 25.1396 177.895 24.7291 177.57 24.4415C177.246 24.154 176.76 24.0101 176.111 24.0099C175.66 24.0101 175.213 24.0815 174.785 24.2217C174.771 24.226 174.758 24.2305 174.744 24.2352C174.426 24.3449 174.079 24.3366 173.767 24.2119C173.454 24.0871 173.197 23.8542 173.042 23.5557L172.8 23.0842C173.304 22.7398 173.864 22.4849 174.455 22.3307C175.102 22.1525 175.769 22.0628 176.44 22.064C177.748 22.0639 178.752 22.375 179.453 22.9973ZM177.366 28.819C177.691 28.6252 177.936 28.3219 178.057 27.9636V27.1007H176.378C175.374 27.1007 174.872 27.4303 174.872 28.0895C174.867 28.2345 174.898 28.3785 174.963 28.5086C175.027 28.6386 175.123 28.7507 175.241 28.8347C175.54 29.0333 175.895 29.1296 176.253 29.1092C176.644 29.1163 177.029 29.0159 177.366 28.819Z" fill="#FF5E71"/>
<path d="M184.023 22.1892H185.071V25.4844H188.743V23.5872C188.743 23.4036 188.779 23.2218 188.849 23.0522C188.919 22.8826 189.022 22.7284 189.152 22.5986C189.282 22.4688 189.436 22.3658 189.606 22.2956C189.775 22.2253 189.957 22.1892 190.141 22.1892H191.191V29.2335C191.191 29.6043 191.044 29.9599 190.781 30.2221C190.519 30.4842 190.164 30.6315 189.793 30.6315H188.743V27.4774H185.071V29.2475C185.071 29.4292 185.035 29.6092 184.965 29.7771C184.896 29.945 184.794 30.0975 184.665 30.226C184.537 30.3545 184.384 30.4565 184.217 30.526C184.049 30.5956 183.869 30.6314 183.687 30.6314H182.639V23.573C182.639 23.3913 182.674 23.2113 182.744 23.0434C182.814 22.8755 182.915 22.723 183.044 22.5945C183.173 22.466 183.325 22.364 183.493 22.2945C183.661 22.225 183.841 22.1892 184.023 22.1892Z" fill="#FF5E71"/>
<path d="M194.925 22.1892H195.96V27.2107L199.654 22.6995C199.784 22.5401 199.949 22.4116 200.135 22.3233C200.321 22.2351 200.524 22.1893 200.731 22.1892H202.315V29.2393C202.315 29.6085 202.169 29.9626 201.907 30.2236C201.646 30.4847 201.292 30.6314 200.923 30.6314H199.883V25.61L196.207 30.1175C196.076 30.2781 195.911 30.4076 195.723 30.4966C195.536 30.5855 195.331 30.6317 195.124 30.6317H193.528V23.586C193.528 23.4025 193.564 23.2209 193.634 23.0514C193.704 22.8819 193.807 22.7278 193.937 22.5981C194.067 22.4684 194.221 22.3655 194.39 22.2954C194.56 22.2252 194.742 22.1891 194.925 22.1892Z" fill="#FF5E71"/>
<path d="M212.264 22.1892V29.2466C212.264 29.4284 212.229 29.6084 212.159 29.7764C212.089 29.9444 211.987 30.0971 211.859 30.2256C211.73 30.3542 211.578 30.4562 211.41 30.5258C211.242 30.5954 211.062 30.6312 210.88 30.6312H209.817V27.493C209.085 27.8533 208.278 28.0361 207.463 28.0266C206.322 28.0266 205.462 27.7676 204.882 27.2497C204.301 26.7317 204.011 25.9288 204.011 24.841V23.5743C204.011 23.3925 204.046 23.2124 204.116 23.0444C204.185 22.8764 204.287 22.7238 204.416 22.5952C204.545 22.4666 204.697 22.3646 204.865 22.2951C205.033 22.2255 205.213 22.1897 205.395 22.1897H206.458V24.6845C206.458 25.1976 206.592 25.5691 206.859 25.7989C207.125 26.0286 207.51 26.1437 208.012 26.144C208.637 26.147 209.254 26.0076 209.817 25.7362V23.5743C209.817 23.2071 209.962 22.8549 210.222 22.5952C210.482 22.3355 210.834 22.1897 211.201 22.1897L212.264 22.1892Z" fill="#FF5E71"/>
<path d="M222.146 27.1007H216.392C216.493 27.6038 216.786 28.0481 217.208 28.3404C217.68 28.6567 218.24 28.8159 218.808 28.7955C219.207 28.8026 219.603 28.7361 219.977 28.5995C220.026 28.5808 220.074 28.5606 220.122 28.5387C220.384 28.4128 220.68 28.3735 220.966 28.4266C221.253 28.4796 221.515 28.6222 221.715 28.8338L222.229 29.3917C221.434 30.3022 220.273 30.7575 218.746 30.7575C217.871 30.7749 217.005 30.5839 216.219 30.2002C215.518 29.8576 214.93 29.3212 214.525 28.6546C214.121 27.9764 213.915 27.1995 213.928 26.4107C213.917 25.6258 214.121 24.8527 214.516 24.1748C214.901 23.5175 215.461 22.9797 216.133 22.6209C216.835 22.2589 217.612 22.0681 218.401 22.0641C219.191 22.06 219.97 22.2428 220.676 22.5976C221.337 22.9458 221.885 23.4769 222.253 24.1275C222.645 24.8345 222.843 25.633 222.826 26.4414C222.826 26.4447 222.826 26.4496 222.826 26.4565C222.817 26.6308 222.741 26.7949 222.615 26.9148C222.488 27.0348 222.32 27.1014 222.146 27.1007ZM217.051 24.3861C216.667 24.7127 216.42 25.1721 216.36 25.6727H220.324C220.348 25.6725 220.372 25.6669 220.394 25.6561C220.416 25.6454 220.435 25.6299 220.45 25.6108C220.465 25.5917 220.475 25.5694 220.48 25.5457C220.485 25.522 220.485 25.4975 220.479 25.4739C220.386 25.0525 220.157 24.6732 219.828 24.3938C219.441 24.0711 218.95 23.9009 218.446 23.9151C217.939 23.899 217.444 24.0662 217.05 24.3861H217.051Z" fill="#FF5E71"/>
<path d="M226.3 30.1998C225.608 29.8508 225.026 29.3155 224.621 28.6541C224.225 27.9725 224.017 27.1984 224.017 26.4102C224.017 25.622 224.225 24.8478 224.621 24.1663C225.026 23.505 225.608 22.9697 226.3 22.6205C227.051 22.2411 227.883 22.0499 228.725 22.0635C229.537 22.0448 230.339 22.2367 231.055 22.6205C231.703 22.9744 232.214 23.5352 232.506 24.2135L231.573 24.7147C231.33 24.8419 231.053 24.8929 230.781 24.8608C230.508 24.8288 230.251 24.7153 230.043 24.5352C229.669 24.2243 229.195 24.0597 228.709 24.0719C228.416 24.063 228.125 24.1141 227.852 24.222C227.58 24.33 227.332 24.4926 227.125 24.6997C226.706 25.1182 226.497 25.6883 226.497 26.4103C226.497 27.1322 226.706 27.7022 227.125 28.1205C227.332 28.3278 227.579 28.4905 227.852 28.5984C228.125 28.7064 228.416 28.7574 228.709 28.7483C229.193 28.7619 229.665 28.601 230.04 28.295C230.249 28.1139 230.508 28.0001 230.783 27.9686C231.058 27.937 231.336 27.9892 231.58 28.1182L232.507 28.6236C232.206 29.2903 231.697 29.841 231.055 30.1927C230.341 30.5817 229.538 30.7765 228.725 30.7577C227.884 30.7712 227.051 30.5797 226.3 30.1998Z" fill="#FF5E71"/>
<path d="M237.716 27.4308H236.445V29.5554C236.445 29.6968 236.418 29.8368 236.363 29.9674C236.309 30.098 236.23 30.2167 236.13 30.3167C236.03 30.4166 235.911 30.4959 235.781 30.5501C235.65 30.6042 235.51 30.632 235.369 30.632H233.998V23.2658C233.998 22.9802 234.111 22.7064 234.313 22.5045C234.515 22.3026 234.789 22.1892 235.074 22.1892H236.445V25.469H237.763L239.815 22.5311C239.889 22.4256 239.987 22.3394 240.101 22.2798C240.215 22.2203 240.342 22.1892 240.471 22.1892H242.659L239.709 26.2385L241.954 29.366C242.04 29.4855 242.091 29.6263 242.102 29.773C242.113 29.9197 242.083 30.0666 242.016 30.1975C241.948 30.3284 241.847 30.4382 241.721 30.5149C241.595 30.5916 241.451 30.6321 241.304 30.6322H239.976L237.716 27.4308Z" fill="#FF5E71"/>
<path d="M245.456 22.1892H246.504V27.2107L250.199 22.6973C250.329 22.5385 250.493 22.4105 250.678 22.3226C250.864 22.2348 251.067 22.1892 251.272 22.1892H252.859V29.2453C252.859 29.4273 252.823 29.6075 252.754 29.7757C252.684 29.9439 252.582 30.0967 252.453 30.2254C252.325 30.3541 252.172 30.4562 252.004 30.5258C251.836 30.5955 251.655 30.6314 251.473 30.6314H250.427V25.61L246.747 30.122C246.617 30.2812 246.453 30.4095 246.268 30.4976C246.082 30.5857 245.879 30.6314 245.674 30.6314H244.072V23.5743C244.072 23.2071 244.218 22.8548 244.477 22.5951C244.737 22.3353 245.089 22.1893 245.456 22.1892Z" fill="#FF5E71"/>
<path d="M256.606 22.1892H257.645V27.2107L261.338 22.6998C261.468 22.5402 261.633 22.4117 261.819 22.3234C262.006 22.235 262.209 22.1892 262.416 22.1892H264V29.2384C264 29.4213 263.964 29.6024 263.894 29.7715C263.824 29.9405 263.721 30.094 263.592 30.2234C263.463 30.3527 263.309 30.4553 263.14 30.5253C262.971 30.5953 262.79 30.6314 262.607 30.6314H261.568V25.61L257.89 30.1189C257.76 30.2791 257.595 30.4081 257.408 30.4967C257.221 30.5854 257.017 30.6314 256.811 30.6314H255.213V23.5822C255.213 23.2127 255.359 22.8584 255.621 22.5972C255.882 22.336 256.236 22.1892 256.606 22.1892ZM257.616 18.8469C257.776 18.8444 257.933 18.8907 258.066 18.9797C258.199 19.0687 258.302 19.1962 258.36 19.345C258.408 19.4777 258.482 19.5992 258.578 19.7019C258.692 19.8094 258.827 19.8921 258.974 19.9447C259.121 19.9972 259.278 20.0185 259.434 20.0072C259.592 20.0175 259.75 19.9957 259.9 19.9433C260.05 19.8908 260.187 19.8087 260.304 19.7019C260.406 19.6001 260.483 19.4772 260.531 19.342C260.59 19.1936 260.692 19.0666 260.825 18.9781C260.958 18.8896 261.115 18.8437 261.274 18.8466H261.297C261.43 18.8469 261.561 18.8802 261.679 18.9436C261.796 19.0071 261.896 19.0986 261.969 19.21C262.043 19.3214 262.087 19.4492 262.099 19.5821C262.111 19.7149 262.09 19.8487 262.038 19.9714C261.67 20.8431 260.807 21.279 259.449 21.2789C258.098 21.2789 257.24 20.8426 256.875 19.9699C256.823 19.8473 256.802 19.7137 256.814 19.581C256.826 19.4484 256.871 19.3208 256.944 19.2096C257.018 19.0984 257.118 19.0071 257.235 18.9439C257.352 18.8806 257.483 18.8473 257.616 18.8469Z" fill="#FF5E71"/>
<path d="M148.03 45.7901C148.307 46.1129 148.455 46.5261 148.446 46.9511C148.451 47.4726 148.254 47.9757 147.897 48.3556C147.482 48.7891 146.963 49.1104 146.391 49.2894C145.692 49.5184 144.96 49.6297 144.225 49.6188C143.571 49.6193 142.919 49.5509 142.279 49.4151C141.664 49.2872 141.069 49.0815 140.506 48.8027L140.684 48.3413C140.808 48.026 141.044 47.7675 141.347 47.6154C141.65 47.4632 141.998 47.4282 142.325 47.517C142.91 47.6656 143.512 47.7392 144.115 47.736C144.582 47.7582 145.047 47.6693 145.473 47.4768C145.617 47.417 145.741 47.316 145.829 47.1863C145.917 47.0566 145.965 46.904 145.967 46.7473C145.972 46.6223 145.942 46.4984 145.881 46.3891C145.82 46.2798 145.73 46.1892 145.622 46.1272C145.312 45.9679 144.965 45.8947 144.617 45.9155H143.652C143.45 45.9155 143.257 45.8353 143.114 45.6926C142.972 45.5499 142.891 45.3564 142.891 45.1546C142.891 44.9528 142.972 44.7593 143.114 44.6165C143.257 44.4738 143.45 44.3936 143.652 44.3936H144.397C144.739 44.4129 145.08 44.3425 145.386 44.1895C145.494 44.1322 145.583 44.046 145.644 43.9407C145.705 43.8353 145.735 43.715 145.731 43.5934C145.73 43.4577 145.688 43.3256 145.611 43.2138C145.534 43.1021 145.426 43.0156 145.3 42.9656C144.912 42.7995 144.49 42.7243 144.068 42.7457C143.56 42.7498 143.054 42.8164 142.562 42.9442C142.234 43.024 141.888 42.9787 141.591 42.817C141.295 42.6552 141.069 42.3887 140.958 42.0696L140.804 41.6317C141.879 41.1406 143.044 40.8788 144.225 40.863C144.918 40.853 145.608 40.9482 146.273 41.1451C146.809 41.2947 147.297 41.5784 147.693 41.9693C147.858 42.1351 147.99 42.3321 148.078 42.5489C148.167 42.7657 148.212 42.998 148.211 43.2323C148.214 43.6208 148.087 43.9992 147.85 44.3071C147.59 44.6408 147.25 44.9027 146.861 45.0683C147.312 45.1929 147.717 45.4433 148.03 45.7901Z" fill="black"/>
<path d="M156.511 41.8284C157.213 42.4511 157.563 43.39 157.563 44.6452V48.0944C157.563 48.4572 157.419 48.8052 157.162 49.0618C156.905 49.3184 156.557 49.4626 156.195 49.4626H155.272V48.4113C154.811 49.1958 153.953 49.5882 152.699 49.5883C152.119 49.6022 151.543 49.4897 151.011 49.2586C150.568 49.0663 150.189 48.7504 149.921 48.3486C149.668 47.9561 149.537 47.4977 149.544 47.031C149.53 46.6735 149.604 46.318 149.758 45.9954C149.913 45.6727 150.144 45.3926 150.431 45.1793C151.022 44.7294 151.934 44.5045 153.169 44.5045H155.115C155.115 43.971 154.953 43.5604 154.629 43.2728C154.305 42.9852 153.818 42.8413 153.169 42.8412C152.719 42.8413 152.271 42.9128 151.843 43.053L151.802 43.0665C151.484 43.1762 151.138 43.1679 150.825 43.0432C150.513 42.9185 150.256 42.6856 150.101 42.3871L149.858 41.9156C150.363 41.571 150.922 41.3161 151.513 41.1622C152.16 40.9839 152.828 40.8942 153.498 40.8954C154.806 40.8946 155.811 41.2055 156.511 41.8284ZM154.425 47.6502C154.749 47.4563 154.994 47.1531 155.116 46.7949V45.9318H153.436C152.432 45.9318 151.93 46.2614 151.929 46.9206C151.925 47.0657 151.956 47.2097 152.02 47.3397C152.085 47.4698 152.181 47.5819 152.299 47.666C152.598 47.8645 152.953 47.9608 153.311 47.9404C153.702 47.9475 154.087 47.8469 154.425 47.6496V47.6502Z" fill="black"/>
<path d="M167.637 47.061C167.653 47.4051 167.582 47.7477 167.431 48.0574C167.28 48.3672 167.054 48.6342 166.774 48.8342C166.198 49.2528 165.341 49.4621 164.201 49.462H159.697V42.4069C159.697 42.0391 159.843 41.6864 160.103 41.4264C160.363 41.1664 160.716 41.0203 161.083 41.0203H164.012C165.069 41.0203 165.895 41.2112 166.492 41.593C166.771 41.7565 167.001 41.992 167.159 42.2749C167.316 42.5578 167.394 42.8777 167.386 43.2013C167.393 43.5941 167.281 43.9799 167.064 44.3076C166.835 44.6385 166.517 44.8971 166.146 45.0531C167.14 45.3876 167.637 46.0569 167.637 47.061ZM161.941 44.4874H163.792C164.65 44.4874 165.079 44.1842 165.079 43.5776C165.079 42.9813 164.65 42.6831 163.792 42.6831H161.941V44.4874ZM165.346 46.8727C165.357 46.737 165.334 46.6007 165.279 46.4762C165.224 46.3516 165.139 46.2425 165.032 46.1587C164.823 46.0071 164.493 45.9312 164.043 45.9312H161.941V47.7987H163.997C164.896 47.7987 165.346 47.49 165.346 46.8727Z" fill="black"/>
<path d="M171.018 49.0302C170.334 48.679 169.76 48.1437 169.363 47.4846C168.972 46.8013 168.767 46.0278 168.767 45.2406C168.767 44.4535 168.972 43.68 169.363 42.9967C169.761 42.3378 170.334 41.8025 171.018 41.4511C171.761 41.0847 172.579 40.8941 173.408 40.8941C174.236 40.8941 175.054 41.0847 175.797 41.4511C176.478 41.8044 177.048 42.3394 177.444 42.9967C177.835 43.6801 178.04 44.4535 178.04 45.2406C178.04 46.0278 177.835 46.8013 177.444 47.4846C177.049 48.1421 176.478 48.6771 175.797 49.0302C175.054 49.3969 174.236 49.5877 173.408 49.5877C172.579 49.5877 171.761 49.3969 171.018 49.0302ZM174.957 46.9434C175.36 46.5198 175.561 45.952 175.561 45.2401C175.561 44.5281 175.36 43.9604 174.957 43.5368C174.759 43.3277 174.519 43.1629 174.252 43.0533C173.986 42.9437 173.699 42.8918 173.412 42.901C173.122 42.8923 172.835 42.9443 172.567 43.0539C172.3 43.1634 172.058 43.3279 171.858 43.5368C171.45 43.9604 171.246 44.5281 171.246 45.2401C171.246 45.952 171.45 46.5198 171.858 46.9434C172.058 47.1522 172.3 47.3166 172.567 47.426C172.835 47.5355 173.123 47.5875 173.412 47.5787C173.699 47.588 173.986 47.5362 174.252 47.4267C174.519 47.3171 174.759 47.1524 174.957 46.9434Z" fill="black"/>
<path d="M189.056 47.8505V49.8928C189.056 50.2613 188.91 50.6146 188.649 50.8752C188.389 51.1357 188.035 51.2821 187.667 51.2821H186.781V49.462H180.849V51.2821H179.965C179.596 51.2821 179.242 51.1355 178.981 50.8746C178.721 50.6137 178.574 50.2598 178.574 49.8909V47.7987C178.574 47.7534 178.583 47.7085 178.6 47.6666C178.618 47.6247 178.643 47.5866 178.675 47.5545C178.707 47.5225 178.745 47.4971 178.787 47.4797C178.829 47.4623 178.874 47.4534 178.919 47.4534C179.442 47.4432 179.803 47.1346 180.002 46.5275C180.201 45.9204 180.327 45.0575 180.379 43.9385L180.438 42.357C180.452 41.9978 180.604 41.6578 180.863 41.4085C181.122 41.1591 181.467 41.0198 181.826 41.0198H187.848V47.4534H188.659C188.764 47.4534 188.865 47.4952 188.94 47.5697C189.014 47.6442 189.056 47.7452 189.056 47.8505ZM182.395 46.2139C182.335 46.6728 182.141 47.1039 181.838 47.4534H185.4V43.0282H182.638L182.591 44.1111C182.575 44.8157 182.509 45.5183 182.395 46.2139Z" fill="black"/>
</svg>
