<svg width="152" height="24" viewBox="0 0 152 24" fill="none" xmlns="http://www.w3.org/2000/svg">
<path d="M2 10.5C1.17157 10.5 0.5 11.1716 0.5 12C0.5 12.8284 1.17157 13.5 2 13.5L2 10.5ZM151.061 13.0606C151.646 12.4749 151.646 11.5251 151.061 10.9393L141.515 1.39339C140.929 0.807599 139.979 0.807599 139.393 1.39339C138.808 1.97917 138.808 2.92892 139.393 3.51471L147.879 12L139.393 20.4853C138.808 21.0711 138.808 22.0208 139.393 22.6066C139.979 23.1924 140.929 23.1924 141.515 22.6066L151.061 13.0606ZM2 13.5L150 13.5L150 10.5L2 10.5L2 13.5Z" fill="#B1B1B1"/>
</svg>
