<svg width="115" height="100" viewBox="0 0 115 100" fill="none" xmlns="http://www.w3.org/2000/svg">
<g filter="url(#filter0_i_167_246)">
<path d="M110.209 61.8977H107.013C105.815 61.8977 104.626 61.9882 103.443 62.1691L69.6823 37.012L77.7703 29.3182C79.6821 27.4995 79.7492 24.4811 77.9188 22.5862C76.0837 20.6865 73.0459 20.6246 71.1437 22.4386L51.1489 41.4588C50.1523 42.4491 48.7963 42.9585 47.3732 42.8395C45.9454 42.7252 44.69 42.0063 43.8323 40.816C42.5195 39.0069 42.922 36.1741 44.6373 34.4649L67.1716 13.3784C71.4408 9.39345 78.1153 8.41744 83.338 11.0217L94.435 16.5349C97.7411 18.1775 101.45 19.044 105.144 19.044H110.204C112.853 19.044 114.995 16.9158 114.995 14.283C114.995 11.6502 112.853 9.522 110.204 9.522H105.144C102.926 9.522 100.697 9.00305 98.7138 8.01752L87.6264 2.50429C78.8867 -1.84251 67.7274 -0.228528 60.5977 6.44639L57.6366 9.21729L54.2825 6.17978C49.8792 2.19482 44.1773 0 38.0395 0C34.3452 0 30.6606 0.866502 27.3689 2.49952L16.2814 8.01276C14.2929 8.99829 12.0649 9.51723 9.84646 9.51723H4.79626C2.14658 9.51723 0.00479147 11.6454 0.00479147 14.2782C0.00479147 16.9111 2.14658 19.0392 4.79626 19.0392H9.85605C13.5503 19.0392 17.2589 18.168 20.5698 16.5302L31.6668 11.0169C36.5637 8.5698 43.4442 9.23158 47.8332 13.2165L50.6458 15.7637L37.9676 27.6281C32.8263 32.7319 32.007 40.8018 36.0606 46.3769C38.5521 49.8191 43.5017 52.371 47.7709 52.371C51.5706 52.371 55.2169 50.8855 57.8522 48.2622L62.6724 43.6774L93.079 66.335C92.9305 66.4397 63.3815 88.4546 63.3815 88.4546C59.9173 91.1302 55.0827 91.1303 51.5466 88.4022L22.3618 66.654C18.2459 63.5831 13.1382 61.893 7.98738 61.893H4.79147C2.14179 61.893 0 64.0211 0 66.654C0 69.2868 2.14179 71.415 4.79147 71.415H7.98738C11.0779 71.415 14.1396 72.4291 16.612 74.2716L45.7298 95.9722C49.2036 98.6574 53.3674 100 57.5216 100C61.6518 100 65.7773 98.6717 69.1984 96.0246L98.3928 74.2763C100.86 72.4338 103.922 71.4197 107.013 71.4197H110.209C112.858 71.4197 115 69.2916 115 66.6587C115 64.0259 112.858 61.8977 110.209 61.8977Z" fill="#FF5E71"/>
</g>
<defs>
<filter id="filter0_i_167_246" x="0" y="0" width="115" height="104" filterUnits="userSpaceOnUse" color-interpolation-filters="sRGB">
<feFlood flood-opacity="0" result="BackgroundImageFix"/>
<feBlend mode="normal" in="SourceGraphic" in2="BackgroundImageFix" result="shape"/>
<feColorMatrix in="SourceAlpha" type="matrix" values="0 0 0 0 0 0 0 0 0 0 0 0 0 0 0 0 0 0 127 0" result="hardAlpha"/>
<feOffset dy="4"/>
<feGaussianBlur stdDeviation="2"/>
<feComposite in2="hardAlpha" operator="arithmetic" k2="-1" k3="1"/>
<feColorMatrix type="matrix" values="0 0 0 0 0 0 0 0 0 0 0 0 0 0 0 0 0 0 0.25 0"/>
<feBlend mode="normal" in2="shape" result="effect1_innerShadow_167_246"/>
</filter>
</defs>
</svg>
