<svg width="101" height="100" viewBox="0 0 101 100" fill="none" xmlns="http://www.w3.org/2000/svg">
<g filter="url(#filter0_i_167_245)">
<path d="M50.5001 50C53.8294 50 57.084 49.0225 59.8522 47.1911C62.6204 45.3598 64.778 42.7568 66.0521 39.7114C67.3261 36.6659 67.6595 33.3148 67.01 30.0818C66.3604 26.8488 64.7572 23.8791 62.4031 21.5482C60.0489 19.2173 57.0495 17.63 53.7841 16.9869C50.5188 16.3438 47.1342 16.6739 44.0583 17.9353C40.9824 19.1968 38.3534 21.333 36.5037 24.0738C34.6541 26.8146 33.6668 30.037 33.6668 33.3333C33.6668 37.7536 35.4403 41.9928 38.5972 45.1184C41.754 48.244 46.0356 50 50.5001 50ZM50.5001 25C52.1648 25 53.792 25.4887 55.1762 26.4044C56.5603 27.3201 57.639 28.6216 58.2761 30.1443C58.9131 31.667 59.0798 33.3426 58.755 34.9591C58.4303 36.5756 57.6287 38.0604 56.4516 39.2259C55.2745 40.3913 53.7748 41.185 52.1421 41.5065C50.5095 41.8281 48.8171 41.663 47.2792 41.0323C45.7413 40.4016 44.4268 39.3335 43.5019 37.9631C42.5771 36.5927 42.0835 34.9815 42.0835 33.3333C42.0835 31.1232 42.9702 29.0036 44.5486 27.4408C46.1271 25.878 48.2679 25 50.5001 25ZM86.9442 38.1542L83.9184 37.1583C84.4629 32.4913 84.0049 27.7631 82.5743 23.2837C81.1437 18.8043 78.773 14.6748 75.6175 11.1662C72.462 7.65758 68.5931 4.849 64.2644 2.92464C59.9357 1.00028 55.2451 0.00361451 50.5001 0C45.6932 0.00183737 40.9425 1.02372 36.5681 2.99681C32.1937 4.9699 28.2973 7.84835 25.1413 11.4382C21.9853 15.0281 19.643 19.246 18.2724 23.8078C16.9017 28.3695 16.5345 33.1692 17.1954 37.8833C13.1682 38.6268 9.44424 40.508 6.47264 43.3C4.4155 45.2364 2.78012 47.569 1.66706 50.1543C0.553996 52.7396 -0.0132368 55.523 0.000234433 58.3333V75.3125C0.00907863 79.818 1.48911 84.1999 4.21946 87.8044C6.94981 91.4088 10.7841 94.0425 15.1502 95.3125L27.2281 99.0625C29.2568 99.6876 31.3696 100.004 33.4943 100C35.4216 99.9975 37.3398 99.7368 39.1966 99.225L63.5207 92.1C65.6876 91.5144 67.9734 91.5144 70.1404 92.1L80.1856 95.4333C82.6614 96.03 85.2416 96.0623 87.7318 95.528C90.2221 94.9937 92.5573 93.9067 94.5615 92.3488C96.5657 90.7909 98.1865 88.8029 99.3018 86.5346C100.417 84.2663 100.998 81.7769 101 79.2541V57.8C100.99 53.4892 99.6345 49.2868 97.1181 45.7689C94.6018 42.251 91.0481 39.5898 86.9442 38.15V38.1542ZM32.6484 15.675C34.9893 13.3479 37.7713 11.5013 40.8348 10.2414C43.8983 8.98142 47.1829 8.33283 50.5001 8.33283C53.8174 8.33283 57.102 8.98142 60.1654 10.2414C63.2289 11.5013 66.0109 13.3479 68.3518 15.675C73.0742 20.3798 75.7287 26.7409 75.7373 33.3739C75.746 40.0069 73.1082 46.3748 68.3981 51.0917L53.4459 65.4875C52.6655 66.2451 51.6162 66.6694 50.5233 66.6694C49.4303 66.6694 48.381 66.2451 47.6006 65.4875L32.6484 51.1542C27.916 46.4391 25.2599 40.0618 25.2599 33.4146C25.2599 26.7673 27.916 20.39 32.6484 15.675ZM92.5834 79.2541C92.5859 80.5161 92.2977 81.7621 91.7405 82.8971C91.1834 84.0322 90.372 85.0264 89.3682 85.8041C88.4197 86.5592 87.3148 87.0981 86.1322 87.3825C84.9495 87.667 83.7181 87.69 82.5255 87.45L72.6569 84.1666C68.9242 83.1049 64.9681 83.0818 61.2229 84.1L36.882 91.2166C34.5433 91.8554 32.0683 91.8134 29.7531 91.0958L17.5742 87.3458C14.9383 86.5911 12.6208 85.0102 10.9696 82.8405C9.31847 80.6707 8.42272 78.0292 8.41688 75.3125V58.3333C8.40742 56.6491 8.74601 54.9807 9.41182 53.4308C10.0776 51.8809 11.0566 50.4823 12.2885 49.3208C14.217 47.5011 16.6737 46.3265 19.3122 45.9625C21.0086 50.1257 23.5348 53.9079 26.7399 57.0833L41.751 71.4708C44.0972 73.7454 47.2501 75.0193 50.5338 75.0193C53.8174 75.0193 56.9704 73.7454 59.3166 71.4708L74.3108 57.0416C77.668 53.7043 80.2689 49.6974 81.9405 45.2875L84.2004 46.0292C86.6512 46.8986 88.7713 48.4956 90.2716 50.6022C91.7719 52.7088 92.5792 55.2224 92.5834 57.8V79.2541Z" fill="#FF5E71"/>
</g>
<defs>
<filter id="filter0_i_167_245" x="0" y="0" width="101" height="104" filterUnits="userSpaceOnUse" color-interpolation-filters="sRGB">
<feFlood flood-opacity="0" result="BackgroundImageFix"/>
<feBlend mode="normal" in="SourceGraphic" in2="BackgroundImageFix" result="shape"/>
<feColorMatrix in="SourceAlpha" type="matrix" values="0 0 0 0 0 0 0 0 0 0 0 0 0 0 0 0 0 0 127 0" result="hardAlpha"/>
<feOffset dy="4"/>
<feGaussianBlur stdDeviation="2"/>
<feComposite in2="hardAlpha" operator="arithmetic" k2="-1" k3="1"/>
<feColorMatrix type="matrix" values="0 0 0 0 0 0 0 0 0 0 0 0 0 0 0 0 0 0 0.25 0"/>
<feBlend mode="normal" in2="shape" result="effect1_innerShadow_167_245"/>
</filter>
</defs>
</svg>
