<svg width="238" height="100" viewBox="0 0 238 100" fill="none" xmlns="http://www.w3.org/2000/svg">
<g filter="url(#filter0_i_167_237)">
<path d="M169.285 37.0363C168.415 34.2336 166.678 31.7886 164.33 30.063C161.982 28.3375 159.149 27.4228 156.248 27.4544H137.676L132.035 9.65082C131.148 6.84839 129.405 4.40365 127.058 2.66915C124.71 0.934641 121.879 0 118.973 0C116.067 0 113.236 0.934641 110.888 2.66915C108.54 4.40365 106.797 6.84839 105.91 9.65082L100.269 27.4544H81.6977C78.8061 27.4585 75.9897 28.3879 73.6509 30.1098C71.3121 31.8318 69.5704 34.2581 68.6747 37.0422C67.779 39.8264 67.775 42.826 68.6634 45.6126C69.5517 48.3991 71.287 50.8302 73.6212 52.5584L88.737 63.7502L82.9899 81.7733C82.0612 84.5686 82.0494 87.593 82.9564 90.3956C83.8634 93.1982 85.6405 95.629 88.0228 97.3255C90.3644 99.0765 93.202 100.015 96.1127 99.9998C99.0235 99.9851 101.852 99.0184 104.176 97.2438L118.973 86.2155L133.774 97.2308C136.111 98.9718 138.933 99.9174 141.835 99.9317C144.736 99.9461 147.568 99.0283 149.922 97.3105C152.276 95.5927 154.031 93.1632 154.935 90.3714C155.84 87.5797 155.847 84.5693 154.955 81.7733L149.208 63.7502L164.341 52.5584C166.702 50.8519 168.458 48.4209 169.348 45.6253C170.238 42.8297 170.216 39.8181 169.285 37.0363ZM159.325 45.6066L141.71 58.645C140.987 59.1795 140.448 59.9317 140.172 60.7944C139.896 61.6571 139.895 62.5861 140.171 63.4489L146.866 84.4119C147.205 85.4752 147.202 86.6198 146.858 87.6813C146.514 88.7428 145.846 89.6664 144.951 90.3194C144.056 90.9724 142.979 91.3211 141.876 91.3154C140.773 91.3097 139.7 90.9498 138.811 90.2876L121.489 77.374C120.76 76.8313 119.878 76.5387 118.973 76.5387C118.067 76.5387 117.186 76.8313 116.456 77.374L99.1344 90.2876C98.2463 90.9588 97.1702 91.326 96.0622 91.3362C94.9541 91.3464 93.8717 90.9989 92.9717 90.3442C92.0718 89.6895 91.4011 88.7616 91.057 87.6949C90.7129 86.6283 90.7132 85.4784 91.0579 84.4119L97.7741 63.4489C98.0501 62.5861 98.0499 61.6571 97.7735 60.7944C97.4972 59.9317 96.9589 59.1795 96.2353 58.645L78.6201 45.6066C77.733 44.9488 77.0739 44.024 76.7368 42.9642C76.3997 41.9044 76.402 40.7639 76.7434 39.7055C77.0847 38.6471 77.7476 37.725 78.6373 37.0709C79.5271 36.4168 80.5982 36.0642 81.6977 36.0634H103.377C104.277 36.0634 105.153 35.7741 105.881 35.2373C106.608 34.7004 107.148 33.9437 107.423 33.0761L114.012 12.2809C114.35 11.2167 115.013 10.2887 115.905 9.63037C116.798 8.97202 117.873 8.61732 118.977 8.61732C120.081 8.61732 121.156 8.97202 122.049 9.63037C122.941 10.2887 123.604 11.2167 123.942 12.2809L130.531 33.0761C130.806 33.9437 131.346 34.7004 132.073 35.2373C132.801 35.7741 133.677 36.0634 134.577 36.0634H156.256C157.356 36.0642 158.427 36.4168 159.317 37.0709C160.206 37.725 160.869 38.6471 161.211 39.7055C161.552 40.7639 161.554 41.9044 161.217 42.9642C160.88 44.024 160.221 44.9488 159.334 45.6066H159.325Z" fill="#FF5E71"/>
<path d="M237.551 60.9625C237.006 59.2248 235.916 57.709 234.443 56.6391C232.969 55.5692 231.191 55.0021 229.371 55.0217H217.718L214.179 43.9835C213.622 42.246 212.529 40.7303 211.056 39.6549C209.583 38.5795 207.806 38 205.983 38C204.159 38 202.383 38.5795 200.91 39.6549C199.437 40.7303 198.343 42.246 197.787 43.9835L194.247 55.0217H182.595C180.78 55.0243 179.013 55.6005 177.546 56.6681C176.078 57.7357 174.985 59.24 174.423 60.9662C173.861 62.6924 173.859 64.5521 174.416 66.2798C174.974 68.0075 176.062 69.5147 177.527 70.5862L187.011 77.5251L183.405 88.6994C182.823 90.4325 182.815 92.3077 183.384 94.0453C183.953 95.7829 185.069 97.29 186.563 98.3418C188.033 99.4275 189.813 100.009 191.639 99.9999C193.466 99.9908 195.24 99.3914 196.699 98.2911L205.983 91.4536L215.27 98.2831C216.736 99.3625 218.507 99.9488 220.328 99.9577C222.148 99.9666 223.925 99.3976 225.402 98.3325C226.879 97.2675 227.98 95.7612 228.548 94.0303C229.115 92.2994 229.12 90.433 228.56 88.6994L224.954 77.5251L234.449 70.5862C235.931 69.5282 237.032 68.0209 237.591 66.2877C238.15 64.5544 238.136 62.6872 237.551 60.9625ZM231.302 66.2761L220.249 74.3599C219.795 74.6913 219.458 75.1577 219.284 75.6925C219.111 76.2274 219.111 76.8034 219.284 77.3383L223.485 90.3354C223.697 90.9946 223.695 91.7043 223.48 92.3624C223.264 93.0205 222.845 93.5932 222.283 93.998C221.721 94.4029 221.046 94.6191 220.354 94.6155C219.661 94.612 218.988 94.3889 218.43 93.9783L207.562 85.9719C207.104 85.6354 206.551 85.454 205.983 85.454C205.415 85.454 204.862 85.6354 204.404 85.9719L193.535 93.9783C192.978 94.3944 192.303 94.6222 191.608 94.6285C190.912 94.6348 190.233 94.4194 189.669 94.0134C189.104 93.6075 188.683 93.0322 188.467 92.3709C188.251 91.7095 188.251 90.9966 188.468 90.3354L192.682 77.3383C192.855 76.8034 192.855 76.2274 192.681 75.6925C192.508 75.1577 192.17 74.6913 191.716 74.3599L180.664 66.2761C180.107 65.8683 179.693 65.2949 179.482 64.6378C179.27 63.9807 179.272 63.2736 179.486 62.6174C179.7 61.9612 180.116 61.3895 180.674 60.984C181.233 60.5784 181.905 60.3598 182.595 60.3593H196.197C196.762 60.3593 197.312 60.18 197.768 59.8471C198.224 59.5143 198.563 59.0451 198.736 58.5072L202.87 45.6141C203.083 44.9544 203.498 44.379 204.058 43.9708C204.618 43.5627 205.293 43.3427 205.986 43.3427C206.678 43.3427 207.353 43.5627 207.913 43.9708C208.473 44.379 208.889 44.9544 209.101 45.6141L213.235 58.5072C213.408 59.0451 213.747 59.5143 214.203 59.8471C214.659 60.18 215.209 60.3593 215.774 60.3593H229.376C230.066 60.3598 230.738 60.5784 231.297 60.984C231.855 61.3895 232.271 61.9612 232.485 62.6174C232.699 63.2736 232.701 63.9807 232.489 64.6378C232.278 65.2949 231.864 65.8683 231.307 66.2761H231.302Z" fill="#FF5E71"/>
<path d="M63.5513 60.9625C63.0057 59.2248 61.9157 57.709 60.4426 56.6391C58.9694 55.5692 57.1913 55.0021 55.3711 55.0217H43.7183L40.179 43.9835C39.6224 42.246 38.5288 40.7303 37.0557 39.6549C35.5826 38.5795 33.8063 38 31.9829 38C30.1594 38 28.3831 38.5795 26.91 39.6549C25.437 40.7303 24.3433 42.246 23.7867 43.9835L20.2474 55.0217H8.59463C6.78029 55.0243 5.01316 55.6005 3.54567 56.6681C2.07817 57.7357 0.985364 59.24 0.423344 60.9662C-0.138676 62.6924 -0.141164 64.5521 0.416237 66.2798C0.973637 68.0075 2.06241 69.5147 3.52705 70.5862L13.0114 77.5251L9.40545 88.6994C8.82271 90.4325 8.81532 92.3077 9.3844 94.0453C9.95348 95.7829 11.0685 97.29 12.5634 98.3418C14.0326 99.4275 15.813 100.009 17.6393 99.9999C19.4657 99.9908 21.2402 99.3914 22.6985 98.2911L31.9829 91.4536L41.2699 98.2831C42.7364 99.3625 44.5073 99.9488 46.3278 99.9577C48.1483 99.9666 49.9248 99.3976 51.4018 98.3325C52.8787 97.2675 53.9802 95.7612 54.5477 94.0303C55.1153 92.2994 55.1197 90.433 54.5603 88.6994L50.9543 77.5251L60.4494 70.5862C61.9307 69.5282 63.0323 68.0209 63.591 66.2877C64.1496 64.5544 64.1357 62.6872 63.5513 60.9625ZM57.3021 66.2761L46.2495 74.3599C45.7955 74.6913 45.4577 75.1577 45.2843 75.6925C45.1109 76.2274 45.1108 76.8034 45.2839 77.3383L49.4847 90.3354C49.6973 90.9946 49.6955 91.7043 49.4795 92.3624C49.2636 93.0205 48.8447 93.5932 48.283 93.998C47.7213 94.4029 47.0457 94.6191 46.3535 94.6155C45.6613 94.612 44.988 94.3889 44.4305 93.9783L33.5618 85.9719C33.104 85.6354 32.5509 85.454 31.9829 85.454C31.4149 85.454 30.8617 85.6354 30.4039 85.9719L19.5353 93.9783C18.9781 94.3944 18.3029 94.6222 17.6076 94.6285C16.9124 94.6348 16.2332 94.4194 15.6685 94.0134C15.1039 93.6075 14.6831 93.0322 14.4672 92.3709C14.2512 91.7095 14.2514 90.9966 14.4677 90.3354L18.6818 77.3383C18.8549 76.8034 18.8548 76.2274 18.6814 75.6925C18.508 75.1577 18.1703 74.6913 17.7163 74.3599L6.66362 66.2761C6.10699 65.8683 5.6934 65.2949 5.48191 64.6378C5.27043 63.9807 5.27187 63.2736 5.48603 62.6174C5.70019 61.9612 6.11612 61.3895 6.6744 60.984C7.23268 60.5784 7.90476 60.3598 8.59463 60.3593H22.1971C22.7618 60.3593 23.3119 60.18 23.7682 59.8471C24.2245 59.5143 24.5634 59.0451 24.7362 58.5072L28.8703 45.6141C29.0825 44.9544 29.4985 44.379 30.0583 43.9708C30.6181 43.5627 31.2929 43.3427 31.9855 43.3427C32.6782 43.3427 33.353 43.5627 33.9128 43.9708C34.4726 44.379 34.8886 44.9544 35.1008 45.6141L39.2349 58.5072C39.4076 59.0451 39.7466 59.5143 40.2029 59.8471C40.6592 60.18 41.2093 60.3593 41.774 60.3593H55.3764C56.0663 60.3598 56.7384 60.5784 57.2967 60.984C57.855 61.3895 58.2709 61.9612 58.4851 62.6174C58.6992 63.2736 58.7007 63.9807 58.4892 64.6378C58.2777 65.2949 57.8641 65.8683 57.3075 66.2761H57.3021Z" fill="#FF5E71"/>
</g>
<defs>
<filter id="filter0_i_167_237" x="0" y="0" width="238" height="104" filterUnits="userSpaceOnUse" color-interpolation-filters="sRGB">
<feFlood flood-opacity="0" result="BackgroundImageFix"/>
<feBlend mode="normal" in="SourceGraphic" in2="BackgroundImageFix" result="shape"/>
<feColorMatrix in="SourceAlpha" type="matrix" values="0 0 0 0 0 0 0 0 0 0 0 0 0 0 0 0 0 0 127 0" result="hardAlpha"/>
<feOffset dy="4"/>
<feGaussianBlur stdDeviation="2"/>
<feComposite in2="hardAlpha" operator="arithmetic" k2="-1" k3="1"/>
<feColorMatrix type="matrix" values="0 0 0 0 0 0 0 0 0 0 0 0 0 0 0 0 0 0 0.25 0"/>
<feBlend mode="normal" in2="shape" result="effect1_innerShadow_167_237"/>
</filter>
</defs>
</svg>
