<svg width="135" height="105" viewBox="0 0 135 105" fill="none" xmlns="http://www.w3.org/2000/svg">
<g filter="url(#filter0_i_167_241)">
<path d="M94.6567 13.6522V23.6219H34.0861C32.9472 23.6225 31.855 24.0768 31.0496 24.8851C30.2443 25.6934 29.7916 26.7896 29.791 27.9327V56.1761H8.78706C8.22904 56.1749 7.67653 56.2868 7.16266 56.5051C6.64879 56.7234 6.18415 57.0437 5.79663 57.4466V11.5843C5.79663 9.57282 6.59279 7.64372 8.00996 6.22139C9.42713 4.79906 11.3492 4 13.3534 4H29.791L91.2077 9.84056C92.1522 9.93094 93.0291 10.3717 93.667 11.0766C94.3049 11.7815 94.6578 12.6999 94.6567 13.6522V13.6522Z" stroke="#FF5E71" stroke-width="8" stroke-linejoin="round"/>
<path d="M126.28 34H50.7196C48.113 34 46 35.058 46 36.363V43.637C46 44.942 48.113 46 50.7196 46H126.28C128.887 46 131 44.942 131 43.637V36.363C131 35.058 128.887 34 126.28 34Z" stroke="#FF5E71" stroke-width="8" stroke-miterlimit="10"/>
<path d="M94.6567 56.176V66.1478C94.6566 67.0995 94.3029 68.017 93.6648 68.721C93.0266 69.4251 92.1499 69.865 91.2058 69.9548L29.7911 75.7973V94.1312C29.794 95.0081 29.6229 95.8768 29.2877 96.6867C28.9526 97.4965 28.4601 98.2313 27.8391 98.8481C27.218 99.4649 26.4808 99.9514 25.6704 100.279C24.8601 100.607 23.9928 100.77 23.1191 100.757C22.5275 100.745 21.937 100.698 21.3507 100.617C17.54 100.093 16.0067 98.4271 12.3161 98.1088C10.9618 97.9951 9.59818 98.079 8.26778 98.3577C7.82688 98.4501 7.37099 98.4427 6.93329 98.336C6.4956 98.2294 6.08709 98.0261 5.73751 97.7411C5.38792 97.456 5.10604 97.0963 4.91237 96.6882C4.7187 96.2801 4.61811 95.8337 4.61792 95.3817V60.3604C4.61809 59.2505 5.05748 58.1862 5.83945 57.4015C6.62142 56.6169 7.68193 56.176 8.78771 56.176H94.6567Z" stroke="#FF5E71" stroke-width="8" stroke-linejoin="round"/>
</g>
<defs>
<filter id="filter0_i_167_241" x="0.61792" y="0" width="134.382" height="108.758" filterUnits="userSpaceOnUse" color-interpolation-filters="sRGB">
<feFlood flood-opacity="0" result="BackgroundImageFix"/>
<feBlend mode="normal" in="SourceGraphic" in2="BackgroundImageFix" result="shape"/>
<feColorMatrix in="SourceAlpha" type="matrix" values="0 0 0 0 0 0 0 0 0 0 0 0 0 0 0 0 0 0 127 0" result="hardAlpha"/>
<feOffset dy="4"/>
<feGaussianBlur stdDeviation="2"/>
<feComposite in2="hardAlpha" operator="arithmetic" k2="-1" k3="1"/>
<feColorMatrix type="matrix" values="0 0 0 0 0 0 0 0 0 0 0 0 0 0 0 0 0 0 0.25 0"/>
<feBlend mode="normal" in2="shape" result="effect1_innerShadow_167_241"/>
</filter>
</defs>
</svg>
